{"glyphs":{"0":{"ha":356,"x_min":0,"x_max":293,"o":"m 181 682 q 217 658 201 674 q 242 624 232 643 q 260 584 253 606 q 272 543 268 563 q 290 358 293 451 q 258 174 286 264 q 226 92 244 132 q 182 15 207 51 q 163 -12 174 3 q 140 -41 153 -28 q 113 -61 128 -54 q 79 -61 97 -68 q 48 -38 60 -54 q 28 -2 36 -22 q 17 39 21 18 q 10 76 13 60 q 0 177 0 126 q 4 278 0 228 q 82 613 17 450 q 74 632 69 619 q 116 680 85 667 q 181 682 147 693 m 160 47 q 231 210 208 124 q 254 388 254 297 q 248 475 253 432 q 229 561 243 518 q 210 607 222 583 q 178 643 199 631 q 138 650 157 654 l 138 649 q 39 260 51 464 q 37 161 36 211 q 49 63 38 111 q 54 35 50 53 q 65 3 58 18 q 83 -20 72 -12 q 110 -19 94 -28 q 138 11 125 -10 q 160 47 150 32 z "},"1":{"ha":190,"x_min":-1,"x_max":150,"o":"m 117 692 q 139 695 128 701 q 147 675 150 689 q 92 307 122 489 q 36 -61 63 125 q 28 -73 35 -69 q 16 -74 22 -76 q 5 -66 10 -72 q 1 -51 0 -60 q 53 292 25 122 q 106 636 81 463 q 69 606 86 621 q 32 575 51 590 q 17 571 25 569 q 5 577 10 572 q -1 589 0 582 q 6 601 -1 596 q 61 647 33 625 q 117 692 89 668 z "},"2":{"ha":342,"x_min":-4,"x_max":306,"o":"m 267 672 q 297 633 289 658 q 305 580 306 608 q 299 524 304 551 q 288 475 293 496 q 240 343 269 407 q 179 217 211 279 q 117 101 149 158 q 54 -15 86 43 q 239 -32 149 1 q 250 -42 247 -35 q 251 -55 253 -49 q 243 -65 249 -61 q 229 -67 238 -69 q 22 -60 126 -29 q 3 -53 11 -62 q 3 -33 -4 -44 q 107 156 56 61 q 203 350 158 251 q 244 452 226 400 q 267 560 261 504 q 268 584 268 569 q 265 613 268 599 q 253 635 261 626 q 231 644 246 644 q 189 631 207 646 q 165 594 171 617 q 156 583 163 586 q 142 583 149 581 q 131 590 136 585 q 129 604 126 596 q 149 642 135 624 q 183 670 164 660 q 224 683 203 681 q 267 672 246 685 z "},"3":{"ha":304,"x_min":-1,"x_max":283,"o":"m 150 447 q 138 435 146 443 q 121 419 129 428 q 107 401 113 410 q 101 388 101 393 q 108 379 101 382 q 122 375 114 376 q 139 372 131 374 q 151 369 147 371 q 198 341 178 360 q 232 299 218 322 q 252 175 264 240 q 210 53 240 110 q 129 -37 179 -1 q 13 -60 79 -72 q 1 -52 4 -58 q 1 -39 -1 -46 q 8 -28 3 -32 q 22 -25 14 -24 q 99 -14 64 -33 q 158 38 133 6 q 198 111 183 71 q 217 186 213 151 q 209 260 221 224 q 165 321 197 297 q 137 335 150 332 q 106 342 124 339 q 87 348 96 344 q 71 360 78 351 q 63 379 63 369 q 67 399 63 389 q 78 419 71 410 q 92 436 85 428 q 136 484 113 463 q 183 529 160 506 q 207 556 194 542 q 228 585 219 569 q 239 606 235 596 q 233 628 243 617 q 219 636 228 633 q 203 640 210 639 q 127 640 167 649 q 56 615 88 632 q 40 615 47 611 q 30 624 33 618 q 28 637 26 631 q 38 647 29 643 q 92 668 58 657 q 162 682 126 679 q 228 675 197 685 q 272 636 258 665 q 272 588 283 611 q 244 544 260 564 q 199 494 224 517 q 150 447 174 471 z "},"4":{"ha":299,"x_min":-6,"x_max":261,"o":"m 225 685 q 233 696 226 693 q 247 697 240 699 q 257 689 253 694 q 260 675 261 683 q 193 320 219 497 q 153 -39 167 143 q 145 -52 151 -47 q 132 -57 139 -57 q 120 -52 125 -57 q 115 -39 115 -47 q 132 130 122 46 q 154 299 142 214 q 111 289 135 290 q 66 294 88 288 q 27 313 44 300 q 4 347 10 326 q 3 422 -6 381 q 18 496 11 463 q 35 583 25 540 q 58 668 46 625 q 68 679 61 676 q 82 681 75 682 q 93 673 89 679 q 94 658 97 667 q 46 449 63 553 q 40 419 43 436 q 37 387 38 403 q 41 358 36 371 q 60 336 46 344 q 87 326 72 329 q 116 325 101 324 q 143 333 131 326 q 161 354 156 340 l 163 356 q 225 685 188 519 z "},"5":{"ha":296,"x_min":-1,"x_max":282,"o":"m 265 682 q 278 678 274 683 q 282 665 282 672 q 278 652 282 658 q 265 646 274 646 q 135 642 199 640 q 110 474 124 557 q 83 306 96 390 q 166 310 126 318 q 226 256 206 303 q 240 174 244 217 q 221 93 236 131 q 181 17 206 53 q 119 -42 156 -18 q 90 -56 107 -50 q 54 -64 72 -62 q 22 -59 36 -65 q 1 -33 7 -53 q 3 -19 -1 -25 q 13 -12 7 -14 q 26 -12 19 -10 q 36 -24 33 -15 q 54 -31 40 -35 q 85 -19 68 -28 q 115 1 101 -10 q 132 15 129 13 q 166 62 151 36 q 190 115 181 88 q 203 170 200 142 q 199 226 207 199 q 177 263 192 251 q 144 277 163 275 q 106 274 126 279 q 67 261 86 269 q 49 265 56 257 q 43 283 42 274 q 71 464 56 375 q 99 644 86 553 q 94 645 96 644 q 92 646 93 646 q 78 652 83 646 q 74 665 74 658 q 78 678 74 672 q 92 682 83 683 q 265 682 178 674 z "},"6":{"ha":289,"x_min":-6,"x_max":236,"o":"m 50 313 q 113 319 82 326 q 168 292 143 313 q 210 243 193 272 q 231 183 226 214 q 230 110 236 147 q 210 39 224 74 q 182 -14 199 13 q 136 -51 165 -40 q 76 -47 100 -64 q 36 0 51 -31 q 13 66 21 31 q 3 126 6 101 q 10 294 -6 210 q 51 458 25 379 q 78 535 63 497 q 111 610 93 574 q 141 664 124 638 q 192 696 158 690 q 206 692 200 697 q 213 681 211 688 q 213 669 215 675 q 201 661 210 663 q 172 644 185 658 q 149 610 158 629 q 131 572 139 592 q 118 538 124 551 q 94 473 104 506 q 74 406 83 440 q 61 359 67 382 q 50 313 56 336 m 189 94 q 196 170 199 131 q 169 240 193 210 q 120 278 150 264 q 61 276 90 292 q 44 276 54 274 q 36 199 38 238 q 40 119 35 160 q 45 83 42 104 q 56 40 49 61 q 76 2 64 18 q 106 -17 88 -14 q 138 -8 124 -19 q 163 22 153 4 q 180 60 174 40 q 189 94 186 81 z "},"7":{"ha":254,"x_min":0,"x_max":226,"o":"m 207 678 q 222 671 217 678 q 225 656 226 664 l 63 -36 q 53 -47 60 -44 q 41 -48 47 -50 q 30 -40 35 -46 q 28 -26 25 -35 q 106 308 67 142 q 183 642 144 474 q 101 643 142 643 q 18 643 60 643 q 5 649 10 643 q 0 661 0 654 q 5 674 0 668 q 18 679 10 679 q 112 679 65 679 q 207 678 158 679 z "},"8":{"ha":324,"x_min":-4,"x_max":269,"o":"m 260 640 q 251 464 269 554 q 200 293 232 374 q 212 272 207 282 q 222 253 217 263 q 250 180 239 218 q 261 103 261 142 q 248 29 261 65 q 203 -36 235 -7 q 144 -67 178 -60 q 81 -67 111 -75 q 27 -36 50 -60 q 0 26 4 -12 q 15 117 -4 71 q 51 203 35 163 q 85 281 68 243 q 122 358 103 319 q 81 469 94 411 q 92 585 67 528 q 131 643 104 615 q 189 682 157 671 q 237 681 217 693 q 260 640 257 669 m 226 108 q 210 193 226 153 q 172 269 193 233 q 161 278 165 272 q 160 290 157 283 q 152 304 156 297 q 144 318 149 311 q 104 232 124 275 q 67 144 85 189 q 47 93 57 119 q 36 39 36 67 q 59 -16 36 7 q 114 -37 82 -39 q 162 -22 140 -36 q 198 13 183 -8 q 219 60 213 35 q 226 108 226 85 m 218 507 q 225 563 221 532 q 225 618 229 593 q 219 640 222 629 q 201 647 217 650 q 189 640 194 646 q 166 624 176 633 q 146 604 156 615 q 117 552 125 579 q 113 497 110 525 q 126 440 115 469 q 150 382 136 411 q 164 358 168 376 q 170 346 167 351 q 176 335 174 340 q 218 507 206 418 z "},"9":{"ha":318,"x_min":-6,"x_max":290,"o":"m 253 686 q 262 698 256 694 q 275 699 268 701 q 286 691 282 697 q 289 676 290 685 q 230 322 253 499 q 188 -33 207 146 q 180 -46 186 -42 q 167 -50 174 -50 q 156 -46 161 -50 q 151 -33 150 -42 q 182 229 167 99 q 218 490 197 360 q 205 472 211 481 q 192 454 199 463 q 156 417 179 439 q 106 380 132 394 q 53 365 79 365 q 10 393 26 364 q 0 450 -6 418 q 14 508 6 482 q 35 571 22 539 q 68 626 49 603 q 112 660 86 649 q 165 660 138 671 q 199 634 186 653 q 206 592 213 615 q 196 581 203 583 q 183 580 189 578 q 172 588 176 582 q 171 601 168 593 q 159 624 175 617 q 132 628 143 631 q 109 617 119 625 q 92 597 99 608 q 68 556 78 578 q 51 510 58 533 q 40 472 46 492 q 36 432 35 451 q 48 406 38 411 q 72 406 58 401 q 98 419 85 410 q 121 435 111 428 q 171 488 150 458 q 206 549 192 517 q 232 615 221 581 q 253 686 243 650 z "},"\u0000":{"ha":0,"x_min":0,"x_max":0,"o":""},"\r":{"ha":397,"x_min":0,"x_max":0,"o":""}," ":{"ha":397,"x_min":0,"x_max":0,"o":""},"n":{"ha":547,"x_min":0,"x_max":578,"o":"m 547 258 q 559 265 553 265 q 570 259 565 264 q 576 247 575 254 q 572 233 578 240 q 530 183 556 211 q 474 133 504 154 q 410 101 443 111 q 344 104 376 90 q 297 144 313 118 q 276 201 282 169 q 270 265 269 232 q 269 325 271 297 q 269 335 269 328 q 267 351 268 343 q 265 367 267 360 q 261 374 264 374 q 248 366 254 376 q 238 350 242 356 q 213 312 225 331 q 188 274 200 293 q 150 206 168 242 q 107 142 132 169 q 69 120 92 124 q 32 138 47 117 q 8 199 13 163 q 0 267 3 236 q 5 280 0 275 q 17 285 10 285 q 30 280 24 285 q 36 267 36 275 q 49 196 38 231 q 53 179 51 186 q 65 168 54 172 q 80 165 78 161 q 89 179 82 169 q 126 241 108 210 q 164 303 144 272 q 184 338 169 313 q 217 384 199 363 q 254 414 235 406 q 290 399 274 422 q 306 344 306 376 q 306 288 306 313 q 307 226 306 257 q 326 168 308 194 q 380 135 349 132 q 443 158 411 138 q 503 209 475 179 q 547 258 532 239 z "},"v":{"ha":285,"x_min":-1,"x_max":317,"o":"m 285 260 q 298 266 290 267 q 310 260 306 265 q 316 249 315 256 q 311 235 317 242 q 257 195 288 208 q 192 193 226 182 q 163 208 176 197 q 153 179 157 193 q 142 151 149 165 q 131 123 138 139 q 117 92 125 107 q 97 69 108 78 q 67 63 85 60 q 39 74 50 64 q 22 99 28 85 q 12 130 15 114 q 7 160 8 146 q -1 247 0 204 q 6 335 -1 290 q 13 347 7 343 q 26 351 19 351 q 38 347 32 351 q 42 335 43 343 q 39 196 33 261 q 40 178 39 190 q 42 152 40 165 q 47 128 44 139 q 56 113 50 117 q 70 112 63 113 q 85 111 78 111 q 92 125 89 118 q 99 143 96 135 q 107 161 103 151 q 121 201 114 181 q 135 242 128 221 q 118 281 125 257 q 107 352 107 315 q 114 425 107 389 q 121 456 117 439 q 131 489 125 472 q 147 519 138 506 q 169 540 156 532 q 194 547 183 549 q 210 539 204 546 q 219 521 217 532 q 221 497 222 510 q 212 410 218 453 q 196 325 206 367 l 175 246 q 188 235 179 239 q 240 228 213 217 q 285 260 268 240 m 143 346 q 146 322 144 335 q 151 296 147 310 q 176 421 165 358 q 182 458 179 439 q 185 497 185 478 q 183 506 185 511 q 174 490 181 501 q 167 476 169 483 q 161 463 164 469 q 147 405 153 435 q 143 346 142 375 z "},"m":{"ha":533,"x_min":-1,"x_max":569,"o":"m 533 258 q 544 266 538 265 q 558 263 551 267 q 567 253 564 260 q 565 239 569 247 q 513 153 543 199 q 443 83 483 108 q 411 72 426 72 q 383 81 396 72 q 363 103 371 89 q 351 136 354 118 q 346 194 347 164 q 342 253 344 224 q 340 283 340 268 q 336 314 339 299 q 335 321 336 317 q 335 328 335 325 q 331 332 335 342 q 325 328 329 332 q 317 322 321 325 q 306 313 311 317 q 272 272 286 294 q 247 226 258 250 q 223 178 235 203 q 196 133 211 154 q 176 125 189 122 q 163 142 163 128 q 164 225 164 183 q 165 307 164 267 q 134 252 146 282 q 110 191 122 222 q 84 131 99 160 q 44 79 69 101 q 25 76 35 72 q 13 93 15 81 q 3 181 7 138 q 0 269 -1 225 q 6 283 0 278 q 18 288 11 288 q 31 283 25 288 q 36 269 36 278 q 44 133 36 201 q 77 192 65 160 q 101 255 89 224 q 129 315 113 286 q 175 365 146 344 q 193 366 183 372 q 203 350 203 360 q 201 282 201 315 q 200 214 201 249 q 230 270 215 242 q 265 322 244 299 q 286 342 272 331 q 315 362 300 354 q 344 369 331 369 q 367 351 358 368 q 376 303 376 331 q 379 253 376 275 q 383 197 382 225 q 388 140 383 168 q 396 117 390 129 q 421 113 401 106 q 432 120 426 114 q 442 131 438 126 q 460 151 451 140 q 478 172 469 161 q 507 213 493 192 q 533 258 521 235 z "},"w":{"ha":457,"x_min":-28,"x_max":489,"o":"m 483 236 q 438 198 464 214 q 382 186 413 182 q 365 191 374 189 q 350 199 357 193 q 311 115 336 154 q 244 68 286 75 q 199 77 219 65 q 164 110 178 89 q 146 157 149 132 q 140 208 143 182 q 104 159 122 183 q 64 115 86 135 q 26 94 49 100 q -12 107 4 89 q -24 130 -21 117 q -28 158 -28 143 q -25 186 -28 172 q -19 211 -22 200 q 40 328 -6 274 q 53 334 46 335 q 65 328 60 333 q 70 316 69 324 q 65 301 71 308 q 19 218 33 264 q 14 199 17 211 q 9 174 11 186 q 8 149 7 161 q 17 133 10 138 q 43 146 25 128 q 81 189 61 164 q 118 238 101 214 q 140 269 135 263 q 158 274 147 278 q 171 261 168 271 q 176 202 176 233 q 188 143 176 171 q 206 117 194 129 q 233 104 217 104 q 261 116 249 104 q 281 139 274 128 q 304 180 294 158 q 321 225 314 201 q 304 253 311 236 q 281 375 276 311 q 283 399 281 385 q 290 428 285 414 q 302 455 294 443 q 322 471 310 467 q 358 456 347 481 q 373 396 369 432 q 374 324 376 360 q 369 276 371 288 q 361 235 365 257 q 379 225 372 226 q 422 231 403 217 q 457 261 442 246 q 470 267 463 268 q 483 262 478 267 q 488 249 488 257 q 483 236 489 242 m 325 301 q 333 278 328 288 q 338 312 336 294 q 339 346 339 329 q 335 406 339 376 q 332 415 333 407 q 329 428 331 422 q 328 423 328 425 q 326 418 328 421 l 324 413 q 316 358 314 386 q 325 301 318 329 z "},"k":{"ha":342,"x_min":-50,"x_max":378,"o":"m 342 257 q 353 266 346 265 q 366 263 360 267 q 375 253 372 260 q 374 238 378 246 q 319 153 350 193 q 238 93 288 113 q 188 83 214 85 q 138 92 161 82 q 106 113 119 101 q 94 122 99 117 q 83 133 90 128 l 83 135 q 44 113 67 124 l 39 113 q 11 30 24 72 q -14 -54 -1 -12 q -22 -65 -17 -62 q -34 -66 -28 -68 q -45 -58 -40 -64 q -49 -44 -50 -53 q 26 417 -11 189 q 101 878 64 646 q 109 889 103 886 q 122 890 115 892 q 133 882 128 888 q 136 868 138 876 q 80 518 108 692 q 22 168 51 344 q 76 269 46 221 q 147 360 106 318 q 165 365 154 367 q 178 351 175 363 q 168 244 186 296 q 111 157 150 193 q 124 144 118 150 q 136 135 129 139 q 169 121 151 124 q 206 122 188 118 q 240 135 224 126 q 271 154 257 143 q 312 202 296 175 q 342 257 328 229 m 82 178 q 143 301 139 228 q 69 182 99 246 q 82 178 75 182 z "},"x":{"ha":281,"x_min":-75,"x_max":318,"o":"m 281 253 q 289 264 282 261 q 303 265 296 267 q 314 257 310 263 q 315 243 318 251 q 288 192 307 215 q 247 151 268 169 q 206 122 228 135 q 156 115 183 108 q 114 137 132 122 q 82 172 96 151 q -40 -35 17 69 q -51 -42 -44 -42 q -64 -40 -58 -43 q -72 -30 -69 -36 q -71 -15 -75 -24 q -6 99 -39 43 q 61 210 26 154 q 38 291 44 249 q 32 367 32 333 q 38 380 32 375 q 50 385 43 385 q 63 380 57 385 q 68 367 68 375 q 72 310 68 342 q 86 247 75 278 q 142 333 114 290 q 199 415 169 375 q 210 423 203 422 q 224 421 218 424 q 232 411 229 418 q 229 397 235 404 q 166 303 197 350 q 103 207 135 256 q 125 176 113 190 q 154 154 138 163 q 191 155 171 146 q 229 181 211 164 q 262 217 247 197 q 281 253 276 238 z "},"j":{"ha":225,"x_min":-190,"x_max":250,"o":"m 221 263 q 236 263 229 267 q 247 254 243 260 q 249 242 250 249 q 239 232 247 236 q 124 161 176 204 q 25 68 71 118 q 20 32 22 50 q 15 -4 18 14 q -18 -162 4 -82 q -92 -304 -40 -242 q -109 -323 -99 -312 q -131 -339 -119 -333 q -153 -343 -142 -344 q -174 -328 -164 -342 q -189 -262 -190 -301 q -182 -193 -187 -222 q -118 -52 -165 -117 q -21 71 -71 13 q -10 83 -18 75 q 0 246 -1 165 q 1 408 1 326 q 7 422 1 417 q 19 426 13 426 q 32 422 26 426 q 38 408 38 417 q 37 267 38 338 q 31 126 36 197 q 119 203 72 168 q 221 263 167 239 m -18 13 q -17 19 -18 17 q -21 14 -19 17 q -72 -51 -47 -18 q -115 -121 -96 -83 q -135 -167 -126 -143 q -149 -214 -144 -190 q -150 -233 -149 -218 q -151 -264 -151 -247 q -149 -293 -151 -281 q -143 -306 -147 -306 q -131 -299 -137 -306 q -117 -281 -124 -292 q -104 -260 -110 -271 q -96 -246 -99 -250 q -74 -204 -83 -226 q -57 -158 -64 -182 q -34 -74 -43 -117 q -18 13 -25 -32 m 31 474 q 6 474 18 461 q 0 486 0 478 q 6 499 0 494 q 20 512 13 506 q 35 525 28 518 q 60 525 47 538 q 65 513 65 521 q 60 500 65 504 q 45 487 53 493 q 31 474 38 481 z "},"y":{"ha":303,"x_min":-12,"x_max":243,"o":"m 210 363 q 232 365 221 374 q 240 344 243 357 q 178 -74 201 131 q 143 -497 156 -279 q 137 -510 143 -506 q 124 -515 131 -515 q 112 -510 117 -515 q 107 -497 107 -506 q 118 -298 113 -396 q 133 -103 124 -200 q 156 90 142 -7 q 192 285 169 186 q 165 253 178 269 q 139 222 151 238 q 100 173 119 200 q 53 132 81 146 q 17 128 35 124 q -7 153 0 133 q -12 181 -12 165 q -10 214 -12 197 q -3 247 -7 231 q 1 275 0 263 q 9 288 3 283 q 22 292 15 292 q 33 288 28 292 q 38 275 39 283 q 35 250 36 263 q 32 225 33 238 q 26 203 29 215 q 26 182 24 192 q 38 169 29 167 q 56 180 46 171 q 74 201 65 189 q 88 218 83 213 q 149 290 118 254 q 210 363 179 326 z "},"h":{"ha":358,"x_min":-31,"x_max":396,"o":"m 358 257 q 372 265 364 264 q 385 262 379 265 q 393 251 390 258 q 390 238 396 244 q 348 184 371 210 q 300 135 325 158 q 258 101 281 118 q 208 88 236 83 q 185 98 193 89 q 173 119 176 107 q 169 144 169 131 q 168 169 168 157 l 164 299 q 66 170 106 240 q 7 21 26 100 q -2 10 4 14 q -15 8 -8 7 q -26 14 -21 10 q -29 26 -31 18 q 108 896 19 465 q 116 907 110 904 q 129 908 122 910 q 140 900 136 906 q 143 886 144 894 q 77 528 107 707 q 25 168 47 350 q 88 267 53 221 q 168 353 124 313 q 188 357 176 361 q 199 340 199 353 q 201 285 200 313 q 203 229 201 257 q 202 202 203 219 q 203 167 201 185 q 210 138 204 150 q 228 126 215 125 q 248 135 238 128 q 268 151 258 142 q 286 169 278 160 q 301 186 294 179 q 358 257 335 222 z "},"z":{"ha":350,"x_min":-1,"x_max":382,"o":"m 350 260 q 363 265 356 265 q 376 260 371 264 q 381 248 381 256 q 376 235 382 240 q 295 164 339 196 q 203 106 251 132 q 114 65 160 82 q 72 51 94 58 q 29 49 49 44 q 1 72 3 53 q 8 113 -1 90 q 31 156 17 135 q 53 189 46 178 q 85 240 68 215 q 117 292 101 265 q 126 305 121 299 q 132 318 131 311 q 131 331 135 329 q 117 332 128 333 q 85 319 101 329 q 58 299 69 308 q 44 293 51 292 q 33 299 38 294 q 27 311 28 304 q 33 324 26 318 q 63 346 43 333 q 103 366 82 358 q 143 372 124 374 q 172 349 163 369 q 169 309 181 329 q 149 274 158 289 q 117 222 133 247 q 83 171 100 196 q 68 144 76 157 q 53 118 60 132 q 44 105 50 113 q 42 90 39 97 q 51 84 44 82 q 65 89 57 86 q 119 106 93 96 q 169 129 144 117 q 265 188 219 156 q 350 260 311 219 z "},"q":{"ha":236,"x_min":-61,"x_max":179,"o":"m 143 369 q 151 381 144 378 q 165 381 158 383 q 175 374 171 379 q 178 360 179 368 q 152 165 164 261 q 129 -31 140 68 q 118 -126 122 -79 q 108 -222 114 -174 q 103 -267 106 -246 q 100 -312 101 -289 q 99 -330 100 -321 q 100 -347 99 -339 q 103 -369 100 -354 q 103 -390 106 -385 q 117 -403 113 -390 l 118 -404 q 115 -420 121 -412 q 100 -428 108 -428 q 74 -412 82 -428 q 63 -375 65 -396 q 63 -333 61 -354 q 65 -300 64 -312 q 75 -190 69 -244 q 88 -79 81 -135 q 103 69 94 -4 q 122 215 113 142 q 106 187 114 200 q 88 161 97 174 q 65 130 79 149 q 35 96 51 111 q 1 71 19 81 q -36 68 -18 61 q -58 94 -56 75 q -56 134 -61 113 q -42 176 -51 156 q -29 208 -33 197 q 11 283 -14 249 q 76 339 36 318 q 91 340 85 343 q 101 331 97 338 q 103 318 104 325 q 94 307 103 311 q 44 266 64 292 q 10 208 24 240 q -2 178 3 193 q -12 147 -7 163 q -17 131 -14 140 q -20 116 -19 122 q -17 108 -21 110 q -1 114 -12 107 q 24 138 13 122 q 44 164 35 153 q 90 232 71 200 q 143 369 126 299 z "},"s":{"ha":222,"x_min":-71,"x_max":247,"o":"m 222 265 q 237 264 231 268 q 245 253 243 260 q 244 239 247 246 q 232 229 240 232 q 157 196 192 218 q 89 147 122 174 q 110 121 101 136 q 114 70 119 96 q 93 23 108 44 q 55 -13 78 1 q 7 -29 32 -28 q -37 -19 -17 -31 q -65 17 -58 -7 q -67 46 -71 32 q -53 71 -62 60 q -33 92 -44 82 q -11 111 -22 103 q 10 129 0 121 q 31 147 19 138 q 24 153 28 149 q 1 180 10 165 q -8 213 -7 194 q 15 294 -10 256 q 71 360 39 333 q 85 364 78 365 q 98 357 93 363 q 103 345 103 351 q 97 333 104 339 q 69 307 85 324 q 42 271 54 290 q 27 231 31 251 q 35 193 24 210 q 58 169 42 182 q 137 225 96 200 q 222 265 178 250 m 79 81 q 76 106 82 96 q 61 125 71 117 q 51 116 56 121 q 40 107 46 111 q 15 87 32 100 q -14 58 -1 74 q -28 29 -26 43 q -7 10 -31 15 q 22 11 7 6 q 49 28 36 17 q 69 53 61 39 q 79 81 76 68 z "},"p":{"ha":308,"x_min":-85,"x_max":251,"o":"m 147 325 q 193 352 167 344 q 238 331 219 360 q 249 274 251 307 q 239 217 246 242 q 175 113 221 157 q 68 57 129 69 q 53 58 58 54 q 37 1 44 31 q 22 -56 29 -28 q -12 -191 4 -124 q -46 -326 -29 -258 q -68 -338 -51 -343 q -82 -317 -85 -333 q 6 358 -15 18 q 12 371 6 367 q 25 375 18 375 q 38 371 32 375 q 43 358 43 367 q 14 53 33 206 q 35 126 24 89 q 63 198 47 163 q 99 266 79 233 q 147 325 119 299 m 206 236 q 210 262 208 249 q 211 288 213 275 q 208 307 210 297 q 192 314 206 317 q 177 304 185 313 q 165 292 169 296 q 129 245 144 269 q 101 193 114 221 q 83 149 92 171 q 67 103 74 126 q 82 99 75 106 q 161 151 128 114 q 206 236 194 188 z "},"o":{"ha":231,"x_min":-36,"x_max":253,"o":"m 240 228 q 187 208 214 217 q 132 196 160 199 q 115 115 126 158 q 75 43 103 71 q 20 29 50 19 q -24 68 -10 39 q -34 108 -32 86 q -33 153 -36 131 q -23 198 -29 176 q -8 238 -17 219 q 8 249 -4 249 q -8 296 -4 269 q -8 327 -10 310 q -1 361 -7 344 q 15 391 4 378 q 40 411 25 404 q 90 406 68 424 q 119 364 111 389 q 134 299 131 333 q 135 233 138 265 q 186 245 161 236 q 231 263 211 254 q 244 263 239 267 q 251 252 250 258 q 251 238 253 246 q 240 228 249 231 m 40 364 q 26 315 25 344 q 40 265 28 285 q 67 242 51 250 q 99 232 82 235 q 94 313 101 272 q 89 336 93 321 q 78 363 85 351 q 63 378 72 375 q 40 364 53 381 m 75 118 q 96 197 89 156 q 74 201 83 197 q 49 213 60 206 q 26 228 38 219 q 9 176 15 203 q 3 122 3 150 q 5 102 3 115 q 12 78 7 89 q 26 63 17 67 q 49 69 35 58 q 65 92 58 76 q 75 118 71 108 z "},"u":{"ha":304,"x_min":-17,"x_max":340,"o":"m 304 257 q 316 265 308 264 q 329 262 324 265 q 338 252 335 258 q 336 238 340 246 q 301 189 321 210 q 257 149 281 168 q 222 122 240 135 q 182 122 204 110 q 156 158 161 133 q 150 204 151 183 l 150 228 q 132 197 142 210 q 96 141 117 172 q 47 97 75 110 q -3 102 10 79 q -15 163 -17 125 q -6 238 -14 200 q 8 289 3 276 q 18 300 11 297 q 32 301 25 303 q 42 293 39 299 q 43 279 46 288 q 27 228 33 254 q 19 174 21 201 q 18 158 19 167 q 18 144 17 150 q 25 135 19 138 q 43 138 31 132 q 60 157 51 143 q 75 178 69 171 q 126 259 103 217 q 164 347 149 301 q 174 358 167 356 q 187 360 181 361 q 197 352 193 358 q 200 338 201 346 q 186 243 189 293 q 185 225 186 236 q 185 203 185 214 q 186 182 185 192 q 192 167 188 172 q 219 165 201 154 q 253 193 236 175 q 285 231 271 211 q 304 257 300 250 z "},"g":{"ha":353,"x_min":-31,"x_max":376,"o":"m 353 263 q 367 261 361 265 q 374 250 372 257 q 374 236 376 243 q 363 228 371 229 q 254 172 300 210 q 172 86 208 135 q 160 -26 168 29 q 118 -208 144 -119 q 95 -262 108 -236 q 54 -303 82 -289 q 28 -292 35 -310 q 14 -198 13 -244 q 28 -106 15 -151 q 64 -17 42 -60 q 113 64 86 25 q 124 82 118 74 q 136 99 129 90 q 138 181 139 139 q 135 263 138 222 q 102 203 121 233 q 63 153 83 174 q 22 126 43 132 q -18 142 0 121 q -30 169 -29 153 q -26 204 -31 186 q -13 239 -21 222 q 0 268 -6 256 q 45 328 17 303 q 113 360 74 353 q 133 347 126 361 q 151 350 140 354 q 164 333 161 346 q 173 240 171 286 q 174 146 175 193 q 253 217 210 186 q 353 263 297 247 m 14 175 q 40 182 24 167 q 72 223 56 197 q 101 277 88 249 q 122 324 115 306 q 74 303 94 319 q 39 264 53 288 q 28 244 35 257 q 17 218 22 232 q 9 192 11 204 q 14 175 7 181 m 99 -143 q 117 -62 110 -103 q 129 18 124 -22 q 130 22 129 21 q 131 25 131 22 q 65 -109 90 -37 q 56 -256 40 -181 q 83 -201 75 -235 q 99 -143 92 -168 z "},"l":{"ha":217,"x_min":-4,"x_max":253,"o":"m 217 257 q 228 266 221 265 q 240 263 235 267 q 249 253 246 260 q 249 238 253 246 q 213 177 232 206 q 171 121 194 149 q 129 79 151 99 q 78 57 107 60 q 27 69 44 53 q 3 111 10 86 q -4 165 -4 136 q -3 215 -4 194 q 108 847 13 536 q 118 858 111 856 q 132 859 125 861 q 143 851 139 857 q 144 838 147 846 q 42 333 67 589 q 33 208 35 271 q 31 181 33 197 q 31 147 29 164 q 37 117 32 131 q 54 96 42 103 q 85 94 69 88 q 113 112 100 100 q 138 138 126 124 q 157 163 150 153 q 190 208 175 185 q 217 257 204 232 z "},"t":{"ha":124,"x_min":-86,"x_max":250,"o":"m 232 485 q 147 479 189 482 q 61 474 104 476 q 19 81 33 276 q 4 -314 6 -115 q -1 -327 4 -322 q -15 -332 -7 -332 q -28 -327 -22 -332 q -33 -314 -33 -322 q -17 80 -31 -115 q 24 471 -3 275 q -22 468 0 469 q -68 465 -44 467 q -81 470 -76 465 q -86 482 -86 475 q -81 495 -86 489 q -68 501 -76 501 q -19 505 -44 504 q 29 508 6 506 q 44 609 36 558 q 63 710 53 660 q 70 722 64 718 q 83 723 76 725 q 94 715 89 721 q 97 700 99 708 q 81 606 89 653 q 67 510 74 558 q 150 515 108 513 q 232 521 192 518 q 245 516 240 521 q 250 504 250 511 q 245 491 250 497 q 232 485 240 485 z "},"r":{"ha":168,"x_min":-14,"x_max":263,"o":"m 257 338 q 262 324 263 332 q 257 312 261 317 q 246 306 253 307 q 233 310 239 304 q 193 335 211 331 q 160 334 175 340 q 129 312 144 328 q 99 274 114 296 q 46 176 68 229 q 24 67 24 122 q 19 53 24 58 q 7 49 14 49 q -6 53 0 49 q -12 67 -12 58 q 4 307 -14 186 q 12 318 6 315 q 25 319 18 321 q 37 311 32 317 q 40 297 42 306 q 35 264 38 281 q 31 231 33 247 q 53 269 42 250 q 78 307 65 289 q 161 368 114 356 q 257 338 208 381 z "},"i":{"ha":217,"x_min":-11,"x_max":247,"o":"m 217 260 q 230 265 222 265 q 242 260 238 264 q 247 248 246 256 q 242 235 247 240 q 187 183 214 208 q 132 131 160 157 q 105 106 118 118 q 76 81 92 93 q 57 63 67 71 q 33 56 47 56 q 10 65 18 56 q -3 86 1 74 q -8 113 -7 99 q -10 138 -10 126 q 10 299 -11 217 q 18 310 11 307 q 31 312 25 314 q 42 303 38 310 q 44 289 46 297 q 32 224 36 257 q 26 157 28 190 q 26 144 26 154 q 26 124 26 135 q 28 104 26 113 q 33 94 29 96 q 42 97 38 93 q 52 105 47 100 q 62 115 57 110 q 69 122 67 119 q 144 191 107 157 q 217 260 181 225 m 42 357 q 17 357 29 344 q 11 369 11 361 q 17 382 11 378 q 31 395 24 389 q 46 408 39 401 q 71 408 58 421 q 76 396 76 404 q 71 383 76 388 q 56 370 64 376 q 42 357 49 364 z "},"d":{"ha":300,"x_min":-69,"x_max":243,"o":"m 243 832 q 239 731 242 782 q 229 629 236 681 q 206 395 218 513 q 185 160 193 278 q 180 -76 178 42 q 201 -310 182 -193 q 198 -324 203 -318 q 186 -331 193 -329 q 173 -331 179 -333 q 165 -319 167 -328 q 143 14 138 -153 q 165 349 149 181 q 139 283 153 315 q 107 219 125 251 q 92 194 103 213 q 65 153 81 175 q 32 110 50 131 q -4 79 14 90 q -37 69 -22 68 q -64 94 -53 71 q -68 124 -69 108 q -61 156 -67 140 q -48 188 -56 172 q -33 215 -40 203 q 10 276 -15 249 q 65 328 35 304 q 78 331 72 333 q 88 322 85 328 q 91 309 92 317 q 83 296 90 301 q -3 196 31 256 q -17 167 -10 182 q -28 135 -24 151 q -28 117 -31 124 q -11 117 -26 110 q 1 128 -6 119 q 11 142 7 138 q 78 242 49 189 q 128 353 107 296 q 171 497 156 424 q 194 644 186 569 q 207 832 203 738 q 213 845 207 840 q 226 850 219 850 q 238 845 233 850 q 243 832 243 840 z "},"W":{"ha":1132,"x_min":-1,"x_max":1181,"o":"m 1143 278 q 1156 285 1149 285 q 1169 283 1164 286 q 1178 274 1175 281 q 1175 260 1181 267 q 1097 208 1146 217 q 1003 218 1049 199 q 971 238 983 226 q 885 75 936 156 q 851 28 869 53 q 811 -15 833 4 q 763 -47 789 -35 q 707 -56 738 -58 q 665 -44 683 -54 q 632 -17 646 -33 q 609 19 618 -1 q 596 61 600 40 q 590 135 589 97 q 599 211 592 174 l 394 -93 q 353 -155 375 -122 q 296 -203 331 -187 q 238 -208 268 -214 q 193 -174 208 -201 q 181 -137 183 -157 q 179 -98 178 -118 q 183 -58 181 -78 q 188 -21 186 -37 q 199 73 193 26 q 213 168 206 119 q 238 372 229 269 q 240 426 239 400 q 240 478 240 451 q 239 519 239 497 q 232 558 239 540 q 202 578 222 583 q 161 554 182 572 q 122 513 140 536 q 96 479 103 489 q 35 322 49 407 q 27 311 33 314 q 15 310 21 308 q 3 318 8 313 q 0 332 -1 324 q 68 501 15 425 q 120 567 89 533 q 188 615 151 601 q 247 604 228 629 q 273 540 267 579 q 278 460 279 501 q 275 399 276 418 q 254 201 269 299 q 228 6 239 104 q 220 -39 225 -10 q 215 -98 215 -68 q 224 -150 215 -128 q 256 -174 232 -172 q 301 -157 283 -176 q 333 -118 319 -137 q 362 -76 349 -97 q 389 -35 375 -56 q 506 139 447 53 q 622 313 564 225 q 646 320 632 326 q 656 299 660 314 q 631 188 642 246 q 629 75 619 131 q 645 28 633 50 q 674 -6 657 7 q 713 -19 690 -18 q 761 -6 735 -21 q 831 60 803 18 q 883 143 860 103 q 942 264 917 201 q 902 334 915 294 q 883 414 889 374 q 878 549 874 481 q 899 685 883 618 q 912 728 903 703 q 935 772 921 753 q 970 798 950 790 q 1017 789 990 806 q 1042 747 1039 774 q 1047 696 1044 719 q 1047 567 1051 631 q 999 311 1039 436 q 992 291 996 300 q 985 272 988 282 q 1003 260 993 264 q 1039 245 1019 250 q 1078 242 1058 240 q 1115 252 1097 243 q 1143 278 1132 261 m 921 408 q 933 353 925 381 q 957 303 942 326 q 961 315 960 310 q 965 326 963 319 q 1006 515 994 418 q 1010 707 1018 611 q 1008 725 1010 715 q 1004 743 1007 735 q 994 756 1001 751 q 974 757 986 761 q 956 742 963 754 q 946 719 949 731 q 933 672 938 696 q 924 624 928 647 q 914 516 915 571 q 921 408 913 461 z "},"N":{"ha":799,"x_min":0,"x_max":713,"o":"m 654 738 q 689 656 679 701 q 704 568 699 610 q 713 442 713 506 q 708 317 713 379 q 699 191 704 254 q 690 65 693 128 q 691 -60 688 3 q 707 -185 694 -122 q 703 -199 708 -193 q 692 -206 699 -204 q 679 -206 686 -208 q 671 -194 672 -203 q 655 -70 658 -132 q 653 54 651 -8 q 661 179 656 117 q 671 304 667 242 q 676 415 675 360 q 672 525 678 469 q 661 621 669 569 q 628 711 653 672 q 589 740 611 738 q 544 731 567 742 q 502 700 522 719 q 468 665 482 681 q 339 467 388 576 q 301 364 317 417 q 272 258 286 311 q 244 151 258 204 q 210 47 229 99 q 200 36 207 39 q 187 35 193 33 q 176 43 181 38 q 175 57 172 49 q 191 128 183 92 q 203 203 199 165 q 207 277 207 240 q 200 350 207 314 q 189 384 197 367 q 168 414 181 401 q 139 430 156 426 q 103 421 122 433 q 56 363 72 401 q 36 289 39 325 q 30 276 36 281 q 17 271 24 271 q 5 276 10 271 q 0 289 0 281 q 22 377 3 333 q 78 449 42 421 q 153 463 114 475 q 215 415 192 451 q 237 356 231 388 q 243 292 243 324 q 276 407 258 350 q 322 517 294 464 q 354 572 333 536 q 403 644 375 607 q 463 715 431 681 q 529 766 496 749 q 594 779 563 783 q 654 738 626 775 z "},"Z":{"ha":489,"x_min":-8,"x_max":926,"o":"m 918 -69 q 926 -83 925 -75 q 923 -96 926 -90 q 913 -104 919 -101 q 899 -101 906 -107 q 803 -68 854 -71 q 703 -68 753 -65 q 590 -73 646 -71 q 478 -78 535 -75 q 245 -90 360 -85 q 14 -100 131 -94 q -6 -82 -3 -100 q 3 -26 -8 -53 q 33 25 14 0 q 74 72 51 50 q 113 114 96 94 q 199 211 156 163 q 288 308 243 260 q 475 500 379 406 q 524 547 499 524 q 572 594 549 571 q 608 634 592 614 q 631 679 624 654 q 146 556 386 636 q 132 557 138 553 q 124 567 126 561 q 125 581 122 574 q 136 590 128 588 q 647 719 385 674 q 663 716 656 721 q 671 701 671 711 q 658 649 669 672 q 630 603 647 625 q 592 563 613 582 q 553 525 571 543 q 458 433 504 479 q 368 339 413 388 q 275 241 321 290 q 185 142 229 192 q 140 90 161 115 q 94 38 118 64 q 55 -9 75 15 q 32 -62 35 -33 q 268 -51 150 -57 q 504 -40 386 -46 q 623 -35 564 -37 q 742 -29 682 -32 q 833 -36 788 -29 q 918 -69 878 -43 z "},"Y":{"ha":1028,"x_min":-1,"x_max":1056,"o":"m 1028 274 q 1042 274 1036 278 q 1052 265 1049 271 q 1055 252 1056 258 q 1046 242 1054 246 q 866 145 951 199 q 699 29 781 92 q 654 -105 679 -39 q 596 -233 629 -171 q 567 -286 582 -258 q 533 -340 551 -314 q 493 -390 514 -367 q 449 -429 472 -412 q 408 -446 429 -443 q 370 -442 388 -449 q 341 -419 353 -435 q 328 -378 329 -403 q 332 -327 325 -353 q 351 -278 339 -301 q 378 -233 364 -254 q 408 -192 393 -211 q 491 -101 446 -143 q 583 -18 536 -58 q 625 17 604 0 q 668 51 646 35 q 733 326 708 188 q 778 607 758 465 q 719 473 750 539 q 651 342 688 407 q 544 169 600 251 q 492 92 519 132 q 429 25 465 53 q 370 -4 403 4 q 308 10 338 -12 q 274 65 281 31 q 267 132 267 100 q 274 243 267 188 q 288 354 281 299 q 297 465 294 410 q 288 575 299 521 q 260 610 281 608 q 215 599 239 613 q 167 565 190 586 q 135 532 144 544 q 76 453 100 496 q 36 361 51 410 q 26 350 33 353 q 13 349 19 347 q 3 357 7 351 q 1 371 -1 363 q 40 461 17 418 q 94 542 63 504 q 124 576 108 558 q 159 608 140 593 q 199 633 178 622 q 242 647 219 644 q 299 631 279 653 q 325 574 319 608 q 331 471 332 522 q 324 368 329 419 q 310 260 317 314 q 303 153 304 206 q 302 104 301 129 q 314 58 303 79 q 353 32 329 32 q 399 47 376 32 q 471 124 440 76 q 529 214 501 172 q 583 299 557 256 q 635 388 610 343 q 801 772 733 571 q 821 785 806 788 q 836 771 836 785 q 836 763 838 768 q 798 501 818 631 q 750 240 778 371 q 733 163 742 201 q 714 86 725 125 q 866 188 789 140 q 1028 274 943 235 m 631 -61 q 640 -36 636 -49 q 649 -11 644 -24 q 624 -31 636 -21 q 600 -51 613 -40 q 522 -120 560 -85 q 451 -196 485 -156 q 421 -234 438 -212 q 390 -280 404 -256 q 369 -329 376 -304 q 364 -378 361 -354 q 381 -409 368 -404 q 410 -407 394 -414 q 442 -387 426 -400 q 465 -362 457 -374 q 501 -317 485 -340 q 533 -269 518 -293 q 588 -168 564 -221 q 631 -61 611 -115 z "},"A":{"ha":765,"x_min":-1,"x_max":785,"o":"m 767 275 q 780 270 775 275 q 785 258 785 265 q 780 245 785 251 q 767 239 775 239 q 717 235 742 236 q 665 231 692 233 q 657 -84 663 72 q 642 -399 651 -240 q 635 -412 642 -407 q 622 -417 629 -417 q 610 -412 615 -417 q 604 -399 604 -407 q 616 -186 611 -292 q 624 26 621 -81 q 627 126 626 76 q 629 226 628 176 q 417 193 522 214 q 363 39 389 115 q 313 -117 336 -37 q 303 -128 310 -125 q 290 -130 296 -132 q 279 -122 283 -128 q 278 -107 275 -115 q 324 39 300 -33 q 375 183 349 111 q 22 76 199 144 q 8 77 14 74 q 1 88 3 81 q 1 101 -1 94 q 13 111 4 108 q 199 176 104 147 q 390 225 293 204 q 410 277 400 251 q 431 331 419 303 q 467 422 449 376 q 506 513 486 467 q 539 582 521 547 q 585 644 557 617 q 607 665 594 653 q 633 674 619 676 q 653 663 646 672 q 664 642 661 653 q 669 599 671 622 q 668 554 668 575 l 668 451 q 667 360 668 406 q 667 267 667 314 q 767 275 717 272 m 432 233 q 531 250 481 243 q 629 264 581 257 q 631 331 631 297 q 632 396 631 364 l 632 589 q 633 611 632 596 q 631 632 635 626 q 618 626 628 635 q 604 611 608 617 q 582 582 592 597 q 564 551 572 567 q 493 394 524 475 q 432 233 463 314 z "},"H":{"ha":914,"x_min":-1,"x_max":940,"o":"m 922 285 q 935 279 931 285 q 940 267 940 274 q 935 254 940 260 q 922 249 931 249 l 824 249 q 796 100 808 174 q 776 -49 783 26 q 770 -62 776 -57 q 757 -67 764 -67 q 744 -62 750 -67 q 740 -49 739 -57 q 760 100 747 26 q 788 249 772 174 q 632 242 708 247 q 478 231 556 238 q 426 -29 451 100 q 375 -289 401 -158 q 367 -301 374 -297 q 355 -302 361 -304 q 344 -294 349 -300 q 340 -279 339 -287 q 390 -26 365 -153 q 439 226 415 100 q 231 199 335 215 q 22 158 126 182 q 8 160 14 156 q 1 172 3 165 q 1 185 -1 179 q 13 193 4 192 q 447 264 229 242 q 491 488 469 376 q 535 713 513 600 q 542 724 536 721 q 556 724 549 726 q 567 717 563 722 q 569 703 571 711 q 527 485 549 594 q 485 268 506 376 q 794 285 639 283 q 797 301 796 293 q 800 317 799 310 q 839 511 819 414 q 878 706 858 608 q 885 717 879 714 q 898 717 892 719 q 909 710 904 715 q 913 696 914 704 q 876 508 893 601 q 839 321 858 415 q 835 303 836 313 q 832 285 833 294 q 876 285 854 286 q 922 285 899 285 z "},"V":{"ha":660,"x_min":-3,"x_max":965,"o":"m 936 801 q 951 802 944 806 q 962 792 958 799 q 964 780 965 786 q 954 769 963 774 q 851 706 897 743 q 767 624 806 669 q 698 528 729 579 q 639 424 667 478 q 519 194 581 307 q 386 -26 458 82 q 363 -63 376 -42 q 333 -103 350 -85 q 297 -132 317 -122 q 254 -132 278 -142 q 222 -106 233 -124 q 203 -68 210 -89 q 194 -24 197 -47 q 190 17 192 -1 q 188 151 183 83 q 197 285 193 218 q 203 356 200 321 q 203 426 206 390 q 196 465 201 444 q 180 501 190 486 q 153 521 169 515 q 113 513 136 526 q 67 469 86 497 q 40 408 47 440 q 40 343 32 375 q 75 292 47 311 q 83 280 82 288 q 81 267 83 272 q 71 258 78 261 q 57 261 64 256 q 18 302 32 278 q 1 354 4 326 q 3 410 -3 382 q 22 464 10 439 q 49 505 33 485 q 86 539 65 525 q 131 557 107 553 q 179 549 154 561 q 226 501 213 533 q 242 431 239 469 q 240 355 244 393 q 233 288 235 317 q 225 145 229 217 q 228 3 221 74 q 233 -31 229 -8 q 244 -71 236 -53 q 265 -97 251 -89 q 297 -87 278 -104 q 321 -60 311 -76 q 340 -29 331 -43 q 358 -2 350 -15 q 376 25 367 11 q 510 259 450 139 q 636 499 571 379 q 762 674 689 594 q 936 801 835 753 z "},"D":{"ha":801,"x_min":-1,"x_max":825,"o":"m 801 265 q 815 263 810 267 q 823 252 821 258 q 822 239 825 246 q 811 231 819 232 q 731 205 771 219 q 650 171 690 190 q 528 -47 603 57 q 488 -102 508 -75 q 442 -151 467 -129 q 423 -167 433 -158 q 401 -183 413 -176 q 376 -190 389 -189 q 353 -185 364 -192 q 324 -147 329 -171 q 324 -96 318 -122 q 342 -45 329 -69 q 367 -4 354 -21 q 481 110 415 60 q 622 199 547 161 q 676 363 656 279 q 700 533 697 447 q 701 568 700 544 q 697 614 701 592 q 683 648 693 636 q 653 647 674 660 q 612 617 631 635 q 576 579 593 599 q 510 494 540 539 q 456 400 481 449 q 349 180 397 292 q 256 -46 300 68 q 253 -51 256 -46 q 249 -60 250 -56 q 247 -69 249 -65 q 238 -81 244 -78 q 224 -83 231 -85 q 213 -74 217 -81 q 211 -60 208 -68 q 262 181 247 58 q 265 428 276 304 q 260 483 263 453 q 240 532 257 513 q 213 547 228 547 q 182 539 197 547 q 153 518 167 531 q 132 496 140 506 q 69 402 93 453 q 36 296 46 351 q 27 284 33 288 q 15 283 21 281 q 3 291 8 285 q 0 306 -1 297 q 42 431 13 371 q 121 538 72 490 q 167 573 140 557 q 222 583 193 589 q 261 563 246 579 q 285 525 276 547 q 299 462 297 496 q 304 396 301 428 q 306 316 307 356 q 303 236 306 276 q 294 146 301 192 q 325 216 310 182 q 357 286 340 250 q 426 424 390 356 q 508 554 461 492 q 553 608 529 582 q 604 656 576 633 q 642 683 621 671 q 686 693 663 696 q 721 667 713 689 q 732 624 729 646 q 737 547 738 585 q 732 468 736 508 q 709 344 725 406 q 671 221 693 282 q 735 246 703 235 q 801 265 768 257 m 569 89 q 583 116 576 103 q 597 143 590 129 q 492 71 542 111 q 401 -18 442 31 q 370 -65 385 -39 q 358 -119 356 -92 q 370 -147 360 -144 q 394 -143 381 -150 q 419 -123 407 -136 q 440 -101 432 -110 q 510 -10 479 -58 q 569 89 542 39 z "},"U":{"ha":654,"x_min":-3,"x_max":683,"o":"m 665 754 q 679 732 683 751 q 669 692 674 713 q 660 653 664 672 q 641 577 650 615 q 622 500 632 539 q 560 141 582 321 q 558 -224 538 -39 q 554 -236 560 -232 q 542 -240 549 -240 q 530 -236 536 -240 q 522 -224 524 -232 q 513 6 508 -108 q 535 232 518 119 q 469 113 507 169 q 379 13 431 57 q 326 -27 356 -8 q 265 -60 297 -46 q 199 -80 233 -74 q 133 -81 165 -86 q 71 -39 88 -72 q 54 38 54 -6 q 65 125 54 81 q 83 199 75 169 q 114 314 99 257 q 133 431 129 371 q 135 490 136 458 q 124 547 135 522 q 101 565 115 568 q 74 547 88 561 q 49 513 60 532 q 36 485 39 494 q 26 474 33 476 q 13 473 19 471 q 2 481 7 475 q 0 494 -3 486 q 18 535 4 511 q 51 577 32 558 q 93 603 71 596 q 136 596 115 611 q 161 555 156 581 q 169 508 167 529 q 167 392 175 453 q 142 278 158 333 q 113 167 126 224 q 101 108 106 138 q 94 47 96 78 q 94 5 93 28 q 111 -33 96 -18 q 140 -47 124 -44 q 173 -47 156 -49 q 207 -40 190 -44 q 236 -31 224 -35 q 360 44 306 -6 q 438 133 404 85 q 497 233 472 181 q 542 343 522 286 q 576 458 561 400 q 602 574 589 517 q 631 690 615 632 q 637 717 633 704 q 644 742 640 729 q 653 754 647 751 q 665 754 658 757 z "},"B":{"ha":743,"x_min":-4,"x_max":783,"o":"m 756 271 q 770 272 764 275 q 780 263 776 268 q 783 251 783 257 q 774 240 782 244 q 648 174 708 210 q 531 94 588 138 q 472 -59 511 15 q 385 -196 433 -133 q 324 -267 357 -231 q 253 -328 292 -304 q 223 -335 236 -337 q 201 -324 210 -333 q 188 -299 192 -314 q 186 -269 183 -285 q 220 -179 193 -222 q 275 -100 247 -136 q 415 49 340 -21 q 456 83 435 67 q 497 115 476 100 q 504 163 504 140 q 499 186 506 175 q 476 196 493 197 q 457 189 468 196 q 439 178 446 182 q 372 137 403 160 q 311 88 340 114 q 299 83 306 82 q 288 87 293 83 q 281 96 282 90 q 283 108 279 101 q 383 269 335 188 q 472 438 432 350 q 506 531 492 479 q 515 583 510 551 q 511 633 519 614 q 481 648 501 656 q 438 620 460 640 q 396 577 415 600 q 369 546 376 554 q 278 404 315 479 q 215 249 242 329 q 171 86 189 169 q 139 -79 153 3 q 135 -108 136 -94 q 131 -135 133 -121 q 123 -146 129 -143 q 110 -147 117 -149 q 98 -139 103 -144 q 94 -125 93 -133 q 99 -98 97 -111 q 104 -72 101 -85 q 120 51 114 -10 q 129 174 126 111 q 132 233 131 201 q 131 297 133 265 q 122 358 129 328 q 96 411 114 388 q 49 358 64 390 q 38 286 35 325 q 33 273 38 278 q 21 268 28 268 q 8 273 14 268 q 0 286 1 278 q 21 382 -4 338 q 92 450 46 426 q 113 447 103 457 q 146 397 135 424 q 163 340 157 369 q 168 278 168 310 q 167 217 168 247 q 176 247 172 232 q 186 276 181 261 q 246 419 211 351 q 326 550 281 488 q 376 609 350 581 q 431 661 401 638 q 476 687 450 676 q 525 679 503 697 q 543 653 538 668 q 550 619 549 638 q 549 584 551 601 q 546 553 547 567 q 527 475 540 513 q 496 401 514 438 q 438 292 468 346 q 375 185 407 238 q 420 212 397 200 q 467 231 443 224 q 503 232 489 238 q 527 213 518 226 q 539 183 536 200 q 540 147 542 165 q 756 271 642 219 m 356 -174 q 479 54 436 -72 q 478 53 478 54 q 476 53 478 53 q 360 -55 417 3 q 264 -179 304 -112 q 228 -254 240 -217 q 222 -271 225 -261 q 222 -287 219 -281 q 239 -293 229 -301 q 257 -278 249 -285 q 356 -174 313 -231 z "},"O":{"ha":604,"x_min":0,"x_max":632,"o":"m 604 265 q 619 267 613 269 q 628 258 625 264 q 631 244 632 251 q 624 233 631 238 q 535 201 581 210 q 442 196 489 193 q 322 0 394 88 q 274 -49 301 -25 q 213 -89 246 -74 q 147 -106 181 -104 q 79 -86 113 -107 q 35 -43 51 -69 q 11 14 19 -17 q 1 77 3 44 q 0 139 0 110 q 61 422 4 288 q 72 547 50 482 q 138 663 94 611 q 242 742 182 714 q 365 757 301 769 q 444 717 414 747 q 489 643 474 686 q 507 549 504 600 q 505 449 510 499 q 490 353 500 399 q 469 274 479 307 q 463 253 467 263 q 456 232 460 243 q 532 238 494 229 q 604 265 569 246 m 317 722 q 236 695 275 718 q 166 638 197 672 q 115 561 135 603 q 93 476 96 519 q 110 469 103 478 q 113 449 118 460 q 106 434 110 442 q 99 419 101 426 q 136 354 110 383 q 236 286 176 310 q 351 247 296 263 q 418 235 385 239 q 435 285 428 260 q 450 339 443 311 q 463 407 457 367 q 469 492 468 447 q 465 579 471 536 q 442 656 460 622 q 394 708 425 689 q 317 722 364 726 m 351 103 q 379 151 367 126 q 403 200 392 175 q 350 210 376 203 q 299 225 324 217 q 236 248 268 235 q 174 278 204 261 q 120 319 144 296 q 79 371 96 342 q 49 253 60 313 q 36 133 38 194 q 39 69 36 104 q 54 2 42 33 q 90 -50 67 -29 q 151 -68 113 -71 q 215 -49 185 -67 q 269 -7 244 -32 q 315 47 294 18 q 351 103 335 76 z "},"G":{"ha":714,"x_min":-1,"x_max":751,"o":"m 728 268 q 742 267 736 271 q 749 256 747 263 q 749 243 751 250 q 738 233 746 236 q 475 97 596 182 q 417 -86 454 3 q 321 -260 376 -179 q 268 -332 297 -293 q 201 -390 239 -371 q 135 -390 165 -408 q 94 -336 104 -372 q 93 -294 89 -315 q 106 -254 97 -274 q 127 -217 115 -235 q 150 -182 139 -199 q 282 -18 208 -93 q 442 118 356 57 q 453 196 449 157 q 460 274 457 235 q 356 143 415 207 q 281 72 321 106 q 192 21 240 39 q 118 11 156 8 q 50 39 81 14 q 10 98 21 63 q 0 169 -1 133 q 17 265 1 218 q 55 356 32 311 q 106 441 78 400 q 163 519 135 482 q 214 583 186 550 q 275 640 242 615 q 347 674 308 664 q 429 668 385 683 q 478 632 464 656 q 492 581 493 608 q 478 525 492 553 q 442 476 464 497 q 428 471 435 469 q 416 477 421 472 q 410 489 411 482 q 415 503 408 496 q 435 524 425 511 q 452 550 446 536 q 460 579 458 564 q 453 608 461 594 q 425 633 442 625 q 388 640 408 640 q 349 635 368 640 q 315 622 329 631 q 263 582 286 607 q 218 531 239 557 q 169 467 193 499 q 125 403 146 436 q 89 340 107 374 q 58 272 71 307 q 38 199 44 236 q 39 128 32 163 q 72 68 46 92 q 138 47 99 44 q 207 67 174 49 q 268 110 240 86 q 374 219 326 158 q 463 347 422 281 q 483 355 469 358 q 496 338 496 351 q 483 147 500 242 q 602 214 542 183 q 728 268 663 244 m 264 -276 q 364 -114 322 -200 q 429 64 406 -28 q 426 62 426 63 q 422 60 425 61 q 203 -168 296 -40 q 178 -201 192 -183 q 153 -240 165 -219 q 134 -280 142 -260 q 129 -319 126 -300 q 140 -347 132 -336 q 165 -361 147 -358 q 192 -354 181 -362 q 214 -335 203 -346 q 240 -306 228 -321 q 264 -276 251 -292 z "},"C":{"ha":683,"x_min":-3,"x_max":719,"o":"m 683 263 q 697 270 689 269 q 710 268 704 271 q 717 258 715 265 q 714 244 719 251 q 561 60 642 149 q 389 -107 481 -28 q 318 -160 357 -135 q 238 -197 279 -185 q 155 -205 197 -210 q 75 -167 113 -200 q 21 -93 38 -135 q 1 -6 4 -51 q 4 88 -3 40 q 22 176 11 135 q 83 356 44 269 q 179 519 121 443 q 235 588 203 551 q 304 652 267 624 q 384 694 342 681 q 472 696 426 708 q 483 686 481 693 q 484 673 486 679 q 476 662 482 667 q 463 660 471 657 q 411 663 436 668 q 363 646 386 658 q 319 616 340 633 q 281 581 299 599 q 167 436 214 514 q 97 294 125 368 q 51 140 68 219 q 39 55 43 103 q 42 -37 35 7 q 74 -117 50 -82 q 147 -165 99 -153 q 232 -165 190 -178 q 312 -125 274 -151 q 384 -66 350 -99 q 446 -6 418 -33 q 570 124 511 57 q 683 263 629 192 z "},"J":{"ha":613,"x_min":-8,"x_max":636,"o":"m 613 264 q 626 261 621 265 q 634 251 632 257 q 633 238 636 244 q 622 229 631 231 q 547 213 585 221 q 472 193 510 204 q 410 44 446 117 q 324 -92 374 -28 q 256 -167 293 -131 q 174 -224 219 -204 q 94 -233 136 -239 q 24 -194 51 -228 q 1 -110 -8 -156 q 41 -24 11 -65 q 110 53 71 18 q 179 108 150 89 q 307 176 240 149 q 444 224 374 204 q 464 289 456 256 q 481 354 472 322 q 500 438 492 396 q 515 522 508 481 q 523 566 519 544 q 531 610 526 588 q 538 650 533 629 q 536 690 542 671 q 318 613 424 658 q 113 506 213 567 q 98 503 104 501 q 88 512 92 506 q 85 525 85 518 q 94 536 86 532 q 540 731 303 665 q 561 722 554 733 q 574 675 575 699 q 569 626 574 651 q 560 570 565 599 q 550 513 556 542 q 526 394 539 453 q 497 275 514 335 q 492 256 494 265 q 486 235 489 246 q 613 264 550 251 m 360 28 q 397 103 381 65 q 429 182 414 142 q 315 140 371 164 q 207 82 258 117 q 136 26 169 57 q 76 -42 103 -4 q 52 -85 63 -61 q 41 -131 42 -108 q 53 -172 40 -154 q 97 -197 65 -190 q 143 -197 121 -203 q 185 -178 165 -190 q 223 -149 206 -165 q 256 -115 240 -132 q 312 -47 286 -83 q 360 28 338 -11 z "},"K":{"ha":382,"x_min":-1,"x_max":744,"o":"m 283 344 q 233 296 258 321 q 189 243 208 271 q 398 -23 275 94 q 672 -219 521 -140 q 681 -231 681 -224 q 678 -244 682 -237 q 669 -253 675 -250 q 654 -251 663 -256 q 380 -56 503 -172 q 169 206 257 60 q 166 199 167 203 q 164 192 165 194 q 156 181 161 186 q 133 78 144 129 q 110 -25 121 26 q 101 -36 107 -33 q 88 -37 94 -39 q 77 -29 82 -35 q 75 -15 72 -24 q 122 194 99 89 q 164 404 144 299 q 173 460 169 432 q 179 515 176 488 q 181 540 181 528 q 181 565 182 553 q 180 594 181 576 q 172 621 179 611 q 158 626 169 640 q 148 620 153 624 q 139 614 143 617 q 99 582 118 600 q 64 547 79 565 q 35 508 49 528 q 22 501 29 501 q 9 503 15 500 q 1 513 3 506 q 3 526 -1 519 q 81 615 38 578 q 119 647 97 631 q 163 669 140 664 q 199 655 188 675 q 214 606 210 635 q 217 549 218 578 q 215 508 217 521 q 201 398 211 453 q 178 288 190 343 q 203 317 190 303 q 231 344 217 331 q 307 418 268 381 q 385 492 346 456 q 711 793 544 642 q 726 797 718 799 q 738 791 733 796 q 744 779 743 786 q 738 767 744 772 q 583 626 658 696 q 431 485 507 556 q 356 415 393 449 q 283 344 319 381 z "},"R":{"ha":529,"x_min":-1,"x_max":674,"o":"m 660 -207 q 671 -215 668 -208 q 672 -228 674 -221 q 664 -240 669 -235 q 650 -243 658 -244 q 578 -218 613 -237 q 514 -172 544 -199 q 456 -117 483 -146 q 407 -60 429 -87 q 315 69 354 3 q 243 210 275 136 q 249 230 238 224 q 269 229 260 236 q 278 225 274 229 q 316 219 294 211 q 358 244 338 226 q 395 281 378 261 q 422 313 413 301 q 474 380 450 344 q 518 453 499 415 q 545 519 533 485 q 563 590 557 554 q 565 674 569 635 q 565 685 564 678 q 563 696 565 692 q 551 710 560 700 q 536 721 543 719 q 518 713 529 722 q 501 697 507 703 q 403 591 449 649 q 322 471 358 533 q 215 239 257 358 q 154 -94 207 71 q 134 -108 150 -110 q 118 -89 118 -106 q 137 81 122 -3 q 179 247 151 165 q 182 304 182 275 q 181 363 182 333 q 177 419 179 390 q 171 476 175 449 q 165 529 168 501 q 149 581 161 557 q 140 594 146 588 q 128 601 135 601 q 113 594 121 603 q 100 581 104 585 q 81 558 89 569 q 67 533 74 546 q 47 485 54 510 q 35 435 39 461 q 28 423 33 426 q 15 422 22 419 q 3 430 8 424 q 0 444 -1 436 q 16 508 6 476 q 44 567 26 539 q 76 610 57 586 q 119 638 94 633 q 163 625 146 642 q 188 584 179 608 q 199 533 196 560 q 206 489 203 506 q 218 344 215 418 q 295 496 251 424 q 393 635 339 568 q 419 666 406 649 q 449 700 433 683 q 481 731 464 717 q 518 753 499 744 q 576 743 557 767 q 600 685 596 719 q 578 505 611 592 q 493 343 546 418 q 458 295 479 324 q 410 241 436 267 q 354 197 383 215 q 296 182 325 179 q 432 -33 350 65 q 478 -87 453 -58 q 533 -140 504 -115 q 593 -183 561 -165 q 660 -207 625 -201 z "},"Q":{"ha":526,"x_min":-3,"x_max":601,"o":"m 593 -183 q 601 -195 600 -187 q 598 -209 601 -203 q 588 -217 594 -215 q 574 -215 582 -219 q 427 -115 499 -171 q 296 8 356 -60 q 250 -40 275 -15 q 196 -79 225 -64 q 135 -97 167 -94 q 71 -81 104 -100 q 22 -30 38 -61 q 1 38 6 1 q 2 111 -3 74 q 15 181 7 149 q 73 337 35 263 q 153 483 111 411 q 160 517 156 500 q 172 550 165 533 q 201 609 183 578 q 240 668 218 640 q 288 718 261 696 q 344 751 314 740 q 408 751 381 765 q 454 708 435 736 q 485 646 474 681 q 500 585 496 611 q 497 433 511 510 q 458 286 483 357 q 399 157 435 219 q 319 38 364 94 q 448 -84 378 -29 q 593 -183 518 -139 m 324 697 q 280 656 300 679 q 244 610 260 633 q 193 494 211 558 q 192 479 197 488 l 188 471 q 183 317 172 394 q 231 168 194 239 q 260 115 244 140 q 296 67 276 90 q 323 105 310 86 q 349 143 336 124 q 450 388 418 257 q 468 514 464 449 q 449 639 472 579 q 432 676 442 657 q 407 708 422 694 q 364 719 385 726 q 324 697 343 713 m 172 -51 q 226 -12 203 -37 q 272 38 250 13 q 197 153 228 92 q 151 286 165 215 q 142 390 142 335 q 90 286 114 339 q 51 176 67 233 q 38 100 43 140 q 40 22 33 60 q 58 -19 44 -1 q 88 -48 71 -37 q 127 -60 106 -58 q 172 -51 149 -62 z "},"L":{"ha":267,"x_min":-1,"x_max":597,"o":"m 574 26 q 588 24 582 28 q 595 13 593 19 q 594 -1 597 6 q 583 -10 592 -8 q 385 -53 485 -33 q 186 -87 286 -72 q 144 -94 165 -90 q 101 -100 124 -97 q 69 -104 86 -103 q 36 -101 51 -106 q 10 -87 18 -97 q 0 -64 1 -76 q 2 -37 -1 -51 q 10 -8 6 -22 q 117 383 63 189 q 225 775 171 578 q 235 786 228 783 q 248 787 242 789 q 258 779 254 785 q 261 765 263 774 q 167 426 214 594 q 74 88 121 258 q 62 45 67 67 q 50 1 57 24 q 44 -18 47 -8 q 39 -37 40 -28 q 43 -62 36 -57 q 67 -68 50 -68 q 152 -58 108 -65 q 238 -43 196 -50 q 406 -12 322 -29 q 574 26 490 6 z "},"S":{"ha":483,"x_min":-8,"x_max":506,"o":"m 483 265 q 497 265 492 268 q 504 254 503 261 q 503 240 506 247 q 493 231 501 233 q 397 192 444 214 q 306 143 350 169 q 346 75 332 111 q 349 -8 360 39 q 305 -92 338 -57 q 231 -150 272 -128 q 151 -182 194 -169 q 67 -186 107 -194 q 11 -152 31 -179 q 4 -87 -8 -125 q 31 -44 13 -64 q 65 -7 49 -25 q 98 28 81 11 q 133 60 115 44 q 190 108 161 85 q 250 150 219 131 q 204 188 228 171 q 157 225 181 206 q 99 285 125 251 q 64 358 72 318 q 71 444 56 403 q 110 521 86 485 q 232 669 161 600 q 260 695 246 682 q 291 718 275 708 q 325 731 307 728 q 363 725 343 733 q 372 715 371 721 q 369 702 372 708 q 358 692 365 696 q 343 693 351 689 q 312 690 329 699 q 278 667 294 682 q 247 635 261 651 q 225 610 233 618 q 185 563 204 586 q 147 511 165 539 q 111 449 128 482 q 97 379 94 415 q 117 323 100 349 q 154 276 133 297 q 216 223 182 249 q 279 169 250 197 q 483 265 375 228 m 290 106 q 283 115 288 110 q 276 124 279 119 q 122 0 196 71 q 83 -39 103 -19 q 50 -82 64 -58 q 42 -130 31 -111 q 85 -151 53 -149 q 132 -149 107 -154 q 181 -135 157 -144 q 226 -112 206 -125 q 264 -83 247 -99 q 313 7 304 -44 q 290 106 322 58 z "},"E":{"ha":646,"x_min":-1,"x_max":678,"o":"m 646 261 q 659 266 651 267 q 672 261 667 265 q 677 249 676 257 q 672 236 678 242 q 383 -28 535 94 q 313 -84 349 -56 q 240 -137 278 -112 q 166 -178 206 -161 q 83 -192 126 -196 q 20 -165 39 -187 q 0 -110 1 -142 q 11 -44 -1 -78 q 40 18 24 -10 q 95 96 65 58 q 153 171 125 133 l 257 308 q 215 303 236 306 q 174 297 194 300 q 119 291 147 294 q 64 294 90 288 q 37 310 49 299 q 24 339 25 321 q 42 380 24 363 q 75 413 60 397 q 268 572 165 497 q 315 605 290 589 q 364 634 339 621 q 417 655 389 647 q 474 661 444 663 q 486 656 482 661 q 490 643 490 650 q 486 631 490 636 q 474 625 482 625 q 385 604 425 626 q 307 556 344 582 q 233 500 269 528 q 161 442 197 472 q 128 413 144 426 q 96 383 111 399 q 82 372 90 378 q 69 358 74 365 q 64 340 63 346 q 71 331 65 333 q 84 328 76 328 q 100 328 92 328 q 198 335 149 328 q 296 351 247 342 q 315 345 307 354 q 315 325 324 336 q 211 188 263 256 q 107 51 160 121 q 65 -9 86 22 q 38 -76 44 -40 q 36 -118 33 -97 q 61 -150 39 -139 q 103 -157 81 -160 q 146 -147 126 -154 q 217 -110 185 -133 q 282 -62 250 -86 q 350 -9 317 -36 q 417 46 383 18 q 533 151 476 97 q 646 261 590 204 z "},"F":{"ha":492,"x_min":0,"x_max":885,"o":"m 497 268 q 510 263 506 268 q 515 250 515 257 q 510 238 515 243 q 497 232 506 232 q 410 234 453 235 q 325 229 368 233 l 279 -121 q 272 -133 278 -129 q 259 -137 265 -137 q 247 -133 253 -137 q 243 -121 242 -129 q 265 52 254 -33 q 288 225 276 138 q 99 183 193 213 q 85 185 90 181 q 77 195 79 189 q 78 208 75 201 q 89 218 81 215 q 190 244 139 233 q 293 263 240 256 q 321 467 307 365 q 350 672 335 568 q 26 510 175 611 q 13 507 19 504 q 3 515 6 510 q 1 528 0 521 q 8 540 1 536 q 218 659 108 610 q 446 739 328 708 q 563 763 504 754 q 681 778 621 772 q 731 782 704 779 q 783 783 757 785 q 834 776 810 782 q 878 753 858 769 q 884 740 885 747 q 878 728 883 733 q 866 722 874 724 q 851 728 858 721 q 799 746 831 746 q 740 744 767 746 q 633 736 688 742 q 421 694 524 724 q 403 689 411 692 q 385 683 394 686 q 386 672 386 681 q 358 469 371 569 q 329 267 344 368 q 413 270 371 269 q 497 268 456 271 z "},"T":{"ha":449,"x_min":-1,"x_max":876,"o":"m 858 631 q 609 607 732 621 q 361 575 486 593 q 249 -308 308 133 q 241 -322 247 -317 q 228 -326 235 -326 q 217 -322 222 -326 q 213 -308 211 -317 q 269 130 242 -89 q 324 569 297 349 q 173 544 249 557 q 22 515 97 531 q 8 517 14 513 q 1 529 3 522 q 1 542 -1 536 q 13 550 4 549 q 174 581 94 567 q 336 607 254 594 q 351 610 346 611 q 604 643 478 629 q 858 667 731 657 q 872 662 867 667 q 876 650 876 657 q 872 637 876 643 q 858 631 867 631 z "},"P":{"ha":469,"x_min":-1,"x_max":575,"o":"m 533 761 q 560 739 551 754 q 572 705 569 724 q 574 667 575 686 q 571 633 574 647 q 540 540 563 585 q 492 451 517 494 q 441 374 468 411 q 382 303 414 338 q 317 243 351 271 q 242 196 282 215 q 212 183 228 189 q 182 188 196 178 q 169 200 174 192 q 131 42 146 121 q 104 -117 115 -37 q 97 -128 103 -125 q 85 -130 92 -131 q 73 -124 78 -129 q 68 -112 68 -119 q 98 83 75 -12 q 138 275 121 178 q 151 377 146 326 q 151 479 156 428 q 149 508 150 492 q 142 536 147 524 q 125 553 136 549 q 96 549 114 558 q 59 516 74 536 q 36 472 44 496 q 26 461 33 464 q 13 460 19 458 q 3 468 7 463 q 1 482 -1 474 q 20 522 7 500 q 51 562 33 544 q 91 590 69 579 q 136 594 113 600 q 171 567 160 589 q 186 518 182 546 q 190 463 190 490 q 189 418 189 435 q 188 388 189 403 q 186 358 188 374 q 267 529 221 446 q 381 679 314 613 q 411 708 393 692 q 450 739 429 725 q 492 760 471 753 q 533 761 514 768 m 538 661 q 537 685 538 672 q 531 708 536 699 q 517 722 526 718 q 493 718 508 726 q 427 674 457 701 q 372 616 397 647 q 325 551 347 585 q 285 483 303 517 q 227 364 253 425 q 182 240 201 303 q 198 235 190 242 q 203 218 206 229 q 218 226 204 221 q 236 235 232 232 q 255 244 246 239 q 272 256 264 250 q 303 279 289 267 q 333 306 318 292 q 390 369 364 336 q 439 438 415 401 q 477 501 458 469 q 511 567 496 533 q 529 613 522 589 q 538 661 536 636 z "},"I":{"ha":340,"x_min":0,"x_max":306,"o":"m 186 625 q 238 644 210 640 q 286 621 267 647 q 299 589 296 607 q 304 551 303 571 q 304 512 306 531 q 301 478 303 493 q 274 312 296 393 q 226 150 251 231 q 181 -12 201 69 q 158 -178 160 -93 q 152 -191 158 -186 q 139 -196 146 -196 q 127 -191 132 -196 q 122 -178 122 -186 q 146 -6 124 -90 q 194 161 168 78 q 241 328 219 244 q 265 500 263 413 q 267 547 267 519 q 260 592 268 574 q 242 606 253 606 q 218 601 231 607 q 194 585 206 594 q 176 569 183 576 q 124 518 149 546 q 82 458 100 490 q 40 321 47 396 q 41 233 38 279 q 74 154 44 188 q 78 140 79 147 q 73 128 78 133 q 61 123 68 124 q 49 129 54 122 q 13 194 24 157 q 1 272 1 232 q 7 352 0 313 q 26 425 14 392 q 91 537 49 483 q 186 625 133 590 z "},"X":{"ha":551,"x_min":0,"x_max":731,"o":"m 699 665 q 711 672 704 672 q 723 667 718 672 q 729 655 728 663 q 725 640 731 647 q 545 426 636 531 q 358 217 454 321 q 400 67 379 142 q 446 -81 421 -7 q 472 -154 458 -117 q 502 -228 485 -192 q 542 -296 519 -264 q 596 -350 564 -328 q 603 -362 603 -354 q 601 -375 604 -369 q 590 -383 597 -381 q 576 -381 583 -386 q 499 -296 528 -344 q 449 -193 471 -247 q 400 -60 421 -126 q 360 75 379 7 q 344 130 353 103 q 329 185 336 157 q 183 29 257 106 q 32 -122 108 -47 q 18 -128 25 -129 q 7 -122 11 -126 q 1 -110 3 -117 q 7 -96 0 -103 q 164 63 86 -17 q 318 226 242 143 q 301 290 310 258 q 282 353 292 321 q 261 419 272 386 q 239 486 250 453 q 224 522 233 501 q 196 546 215 543 q 177 541 186 546 q 160 528 168 536 q 144 512 151 521 q 133 496 138 503 q 121 488 128 489 q 108 490 114 488 q 99 500 101 493 q 101 514 97 507 q 138 557 117 536 q 186 581 158 578 q 233 567 215 585 q 261 526 251 550 q 309 394 289 463 q 347 258 329 326 q 526 460 439 358 q 699 665 614 561 z "},"@":{"ha":497,"x_min":-3,"x_max":456,"o":"m 340 604 q 415 544 389 583 q 448 458 440 506 q 445 363 456 411 q 411 274 435 314 q 387 245 401 258 q 356 226 372 232 q 322 223 339 219 q 289 244 304 226 q 265 306 269 268 q 233 264 251 285 q 207 240 222 253 q 174 218 192 226 q 138 208 156 210 q 104 221 119 207 q 90 256 88 236 q 97 293 92 275 q 116 342 106 318 q 139 390 126 367 q 162 428 149 407 q 192 464 175 449 q 228 485 208 479 q 271 481 247 492 q 280 470 279 476 q 277 458 281 464 q 267 449 274 451 q 251 450 260 446 q 225 445 239 456 q 199 418 211 435 q 176 383 186 401 q 163 357 167 365 q 136 294 146 326 q 131 278 133 288 q 128 261 128 269 q 133 249 128 253 q 150 247 138 244 q 199 279 176 254 q 236 328 222 304 q 265 403 257 360 q 268 422 267 413 q 271 440 269 432 q 278 451 272 447 q 290 453 283 454 q 302 447 297 451 q 307 435 307 443 q 305 419 306 426 q 303 403 304 411 q 300 364 300 383 q 301 325 300 344 q 306 297 304 314 q 315 271 307 281 q 335 258 325 258 q 353 262 344 257 q 369 276 361 267 q 381 292 376 285 q 415 387 407 335 q 404 486 422 439 q 351 556 386 532 q 274 582 315 579 q 192 569 233 585 q 121 519 150 553 q 73 442 92 486 q 45 351 54 399 q 37 255 36 303 q 49 165 38 207 q 86 85 60 122 q 153 29 113 49 q 244 27 199 10 q 308 90 289 44 q 319 99 313 99 q 331 97 325 100 q 341 87 338 93 q 340 72 344 81 q 278 2 321 28 q 186 -17 235 -24 q 97 22 138 -10 q 35 97 57 53 q 5 190 13 139 q 1 292 -3 240 q 19 394 6 344 q 54 486 33 444 q 106 553 75 524 q 176 601 138 583 q 256 620 214 618 q 340 604 299 622 z "},"%":{"ha":483,"x_min":-1,"x_max":458,"o":"m 428 617 q 440 623 433 624 q 451 617 446 622 q 457 606 456 613 q 453 592 458 599 q 35 3 225 311 q 23 -5 31 -4 q 9 -2 15 -6 q 1 8 3 1 q 3 22 -1 14 q 428 617 196 335 m 43 436 q 39 472 39 453 q 42 512 39 492 q 53 550 46 532 q 72 581 60 568 q 74 583 74 582 q 76 586 75 585 q 140 592 107 607 q 188 546 174 578 q 188 469 203 508 q 143 403 172 429 q 83 388 114 378 q 43 436 51 397 m 158 511 q 140 552 157 535 q 99 557 122 569 q 81 519 83 542 q 76 478 78 497 q 78 453 76 467 q 84 431 79 440 q 98 421 89 422 q 121 433 107 419 q 148 469 136 447 q 158 511 160 490 m 314 214 q 378 221 344 235 q 425 175 411 207 q 425 98 440 138 q 381 32 410 58 q 319 16 350 6 q 281 64 289 26 q 279 140 272 97 q 310 210 286 183 l 314 214 m 358 61 q 385 97 374 76 q 396 140 397 118 q 377 180 394 163 q 336 185 360 197 q 318 147 321 169 q 314 106 315 125 q 315 83 314 96 q 322 60 317 69 q 335 50 326 51 q 358 61 343 49 z "},"/":{"ha":397,"x_min":-1,"x_max":458,"o":"m 428 617 q 440 623 433 624 q 451 617 446 622 q 457 606 456 613 q 453 592 458 599 q 35 3 225 311 q 23 -5 31 -4 q 9 -2 15 -6 q 1 8 3 1 q 3 22 -1 14 q 428 617 196 335 z "},"_":{"ha":397,"x_min":0,"x_max":379,"o":"m 369 38 q 379 22 379 32 l 379 18 q 369 3 379 7 q 338 -3 356 -4 q 306 -4 321 -3 q 258 -5 282 -4 q 211 -6 235 -6 q 115 -9 163 -8 q 18 -11 67 -10 q 5 -6 10 -11 q 0 7 0 0 q 5 19 0 14 q 18 25 10 25 q 104 27 61 26 q 192 31 147 28 q 235 31 214 31 q 278 32 257 32 q 308 31 289 33 q 342 32 328 29 q 367 39 353 44 q 369 38 369 39 z "},"#":{"ha":479,"x_min":0,"x_max":444,"o":"m 407 554 q 417 565 410 563 q 431 566 424 568 q 441 558 438 564 q 442 544 444 553 q 411 458 426 500 q 381 371 396 415 q 402 370 392 371 q 424 368 413 369 q 436 363 432 368 q 440 350 440 357 q 436 338 440 343 q 424 332 432 332 q 395 334 408 333 q 367 335 382 335 q 343 273 356 303 q 318 211 331 243 q 347 210 333 211 q 374 208 360 210 q 387 202 382 208 q 392 189 392 196 q 387 177 392 182 q 374 172 382 172 q 339 174 356 174 q 304 175 322 175 q 270 91 288 133 q 233 7 253 49 q 224 -2 231 -1 q 211 1 217 -3 q 202 10 206 4 q 203 25 199 17 q 234 101 218 63 q 265 176 250 139 q 197 178 231 178 q 128 179 163 179 q 93 92 111 135 q 57 7 75 50 q 47 -2 53 -1 q 34 1 40 -3 q 24 10 28 4 q 25 25 21 17 q 58 102 42 64 q 89 178 74 140 q 53 178 71 178 q 18 176 36 178 q 5 182 10 176 q 0 194 0 188 q 5 208 0 201 q 18 214 10 214 q 60 215 39 214 q 104 215 82 215 q 128 276 115 246 q 151 339 140 307 q 110 338 131 339 q 67 338 89 338 q 54 342 58 338 q 50 354 50 347 q 54 367 50 361 q 67 374 58 374 q 117 375 92 375 q 165 375 142 375 q 198 465 182 419 q 229 554 214 510 q 239 565 232 563 q 253 566 246 568 q 264 558 260 564 q 265 544 268 553 q 235 460 250 501 q 204 375 219 418 q 273 374 239 375 q 342 372 307 374 q 375 463 358 418 q 407 554 392 508 m 281 213 q 305 274 293 244 q 328 336 317 304 q 259 338 293 338 q 190 339 225 339 q 167 276 179 307 q 143 215 156 246 q 212 215 178 215 q 281 213 246 214 z "},"&":{"ha":408,"x_min":0,"x_max":371,"o":"m 299 163 q 331 117 314 139 q 365 74 347 94 q 369 60 371 67 q 363 48 368 53 q 351 42 358 43 q 339 49 344 42 q 275 133 303 90 q 208 81 246 101 q 128 54 171 60 q 60 63 89 49 q 16 103 32 78 q 0 163 0 129 q 17 229 0 196 q 83 303 42 276 q 169 356 125 331 q 153 428 158 392 q 151 512 146 469 q 183 589 156 554 q 235 626 203 614 q 299 624 267 639 q 343 572 331 608 q 350 501 356 536 q 323 432 344 464 q 271 376 301 400 q 243 357 257 365 q 214 339 229 349 q 242 267 226 303 q 278 196 258 231 q 315 282 304 235 q 324 294 317 290 q 337 295 331 297 q 347 287 343 293 q 350 272 351 281 q 299 163 338 214 m 192 418 q 197 396 194 407 q 203 374 200 385 q 240 398 222 385 q 274 428 258 411 q 303 470 292 447 q 315 519 314 493 q 312 548 315 533 q 301 574 308 563 q 283 591 294 585 q 254 594 271 597 q 210 569 225 589 q 190 522 196 549 q 186 467 185 496 q 192 418 188 439 m 222 135 q 239 149 231 142 q 254 165 247 157 q 213 241 232 201 q 181 321 194 281 q 146 301 163 311 q 114 281 129 292 q 78 249 96 268 q 48 209 60 231 q 34 163 36 188 q 47 117 32 139 q 85 90 61 94 q 133 91 108 85 q 182 110 158 97 q 222 135 206 122 z "},"$":{"ha":361,"x_min":-4,"x_max":286,"o":"m 179 313 q 216 284 197 299 q 250 253 235 269 q 275 217 265 236 q 286 172 285 197 q 274 124 286 144 q 241 92 261 104 q 196 75 221 79 q 147 74 171 71 q 141 75 144 75 q 133 76 138 75 q 129 47 131 61 q 126 19 128 33 q 119 6 125 11 q 106 1 113 1 q 93 6 99 1 q 89 19 88 11 q 94 52 92 36 q 99 85 96 68 q 58 102 78 92 q 24 127 39 113 q 3 160 10 142 q 3 200 -4 178 q 13 212 6 208 q 26 213 19 215 q 36 205 32 211 q 38 190 40 199 q 53 149 31 165 q 104 121 76 132 q 121 210 113 165 q 139 299 129 254 q 115 320 126 310 q 93 343 103 331 q 69 412 69 375 q 84 481 68 449 q 128 537 100 514 q 190 565 157 560 q 198 623 194 594 q 204 679 201 651 q 210 692 204 688 q 224 697 217 697 q 236 692 231 697 q 240 679 242 688 q 234 622 238 651 q 226 565 231 593 q 275 544 253 561 q 283 531 282 539 q 281 518 283 524 q 271 510 278 513 q 257 513 264 507 q 221 528 239 526 q 201 420 211 474 q 179 313 190 367 m 147 338 q 185 526 168 433 q 121 476 144 515 q 106 404 99 440 q 144 340 114 368 l 147 338 m 164 108 q 196 113 179 108 q 225 126 213 117 q 244 149 238 135 q 247 182 251 163 q 219 235 240 214 q 171 276 197 257 q 155 194 163 235 q 140 113 147 153 q 164 108 153 108 z "},"{":{"ha":178,"x_min":-3,"x_max":239,"o":"m 215 700 q 229 697 224 701 q 237 687 235 693 q 236 674 239 681 q 225 665 233 667 q 163 630 186 656 q 128 571 140 604 q 110 501 115 538 q 103 432 106 464 q 99 388 101 411 q 90 344 96 365 q 72 304 83 322 q 40 276 60 286 q 45 185 50 231 q 38 92 40 139 q 40 37 36 67 q 53 -18 43 7 q 83 -61 64 -43 q 135 -81 103 -79 q 148 -87 143 -81 q 153 -100 153 -93 q 148 -112 153 -107 q 135 -117 143 -118 q 48 -75 82 -114 q 4 13 14 -36 q 0 80 -3 46 q 6 148 3 114 q 9 215 8 182 q 0 282 10 249 q 2 296 -3 289 q 14 306 7 303 q 40 322 31 310 q 56 351 50 335 q 63 386 61 368 q 65 419 64 404 q 72 485 68 451 q 83 551 75 519 q 130 644 97 603 q 215 700 163 686 z "},"}":{"ha":210,"x_min":-53,"x_max":189,"o":"m -29 -114 q -43 -112 -37 -117 q -51 -101 -49 -107 q -50 -88 -53 -94 q -39 -79 -47 -82 q 22 -44 0 -69 q 57 15 44 -18 q 75 85 69 49 q 83 154 81 122 q 88 198 85 175 q 97 242 90 221 q 115 282 103 264 q 146 310 126 300 q 141 401 136 356 q 149 494 146 447 q 147 549 150 519 q 133 604 143 579 q 102 647 122 629 q 51 667 82 664 q 38 673 43 667 q 33 686 33 679 q 38 699 33 693 q 51 703 43 704 q 138 661 104 700 q 182 574 172 622 q 185 506 188 540 q 181 438 183 472 q 177 371 178 404 q 186 304 176 338 q 184 290 189 297 q 172 281 179 283 q 146 263 156 276 q 131 233 136 250 q 124 199 125 217 q 121 167 122 181 q 115 101 118 135 q 103 35 111 67 q 56 -58 89 -17 q -29 -114 24 -100 z "},"(":{"ha":160,"x_min":-1,"x_max":213,"o":"m 176 725 q 188 733 181 732 q 202 730 196 733 q 210 720 208 726 q 208 706 213 714 q 110 523 153 618 q 47 326 67 428 q 36 226 39 281 q 42 119 33 172 q 74 20 51 67 q 139 -57 97 -26 q 147 -70 146 -62 q 144 -84 147 -78 q 134 -92 140 -90 q 121 -89 128 -94 q 53 -12 79 -57 q 15 83 28 32 q 1 188 3 135 q 6 290 -1 242 q 67 516 21 407 q 176 725 114 625 z "},")":{"ha":215,"x_min":-33,"x_max":179,"o":"m 3 -83 q -9 -91 -1 -90 q -23 -88 -17 -92 q -31 -78 -29 -85 q -29 -64 -33 -72 q 69 119 26 24 q 132 315 113 214 q 143 415 140 361 q 137 522 146 469 q 105 621 128 575 q 40 699 82 667 q 33 712 33 704 q 35 726 32 719 q 45 734 39 732 q 58 731 51 736 q 126 654 100 699 q 164 558 151 610 q 178 453 176 507 q 174 351 179 400 q 112 126 158 235 q 3 -83 65 17 z "},"<":{"ha":253,"x_min":-3,"x_max":204,"o":"m 181 138 q 194 137 189 140 q 202 126 200 133 q 201 113 204 119 q 190 103 199 106 q 171 102 179 99 q 153 113 163 106 q 119 146 135 128 q 88 179 104 164 q 56 213 72 196 q 22 247 39 229 q 4 267 11 258 q 0 293 -3 276 q 21 356 4 326 q 58 415 38 386 q 95 473 78 443 q 119 538 113 503 q 127 549 121 546 q 140 549 133 551 q 151 542 146 547 q 154 528 156 536 q 115 432 144 475 q 58 343 85 389 q 42 314 51 332 q 39 282 33 296 q 60 257 43 271 q 86 235 76 243 q 111 208 99 221 q 138 182 124 194 q 145 172 139 179 q 159 157 151 165 q 173 143 167 149 q 181 138 179 138 z "},">":{"ha":215,"x_min":6,"x_max":213,"o":"m 29 519 q 15 520 21 517 q 8 531 10 524 q 8 544 6 538 q 19 554 11 551 q 39 555 31 558 q 57 544 47 551 q 90 511 75 529 q 122 478 106 493 q 154 444 138 461 q 188 410 171 428 q 206 390 199 399 q 210 364 213 381 q 189 301 206 331 q 152 242 172 271 q 114 184 132 214 q 90 119 96 154 q 83 108 89 111 q 70 108 76 106 q 59 115 64 110 q 56 129 54 121 q 95 225 65 182 q 151 314 125 268 q 167 343 158 325 q 171 375 176 361 q 150 400 167 386 q 124 422 133 414 q 99 449 111 436 q 72 475 86 463 q 65 484 71 476 q 51 500 58 492 q 37 514 43 508 q 29 519 31 519 z "},"[":{"ha":164,"x_min":-1,"x_max":218,"o":"m 203 731 q 215 724 211 729 q 216 711 218 718 q 208 699 214 704 q 193 696 201 694 q 143 700 168 700 q 115 512 131 606 q 85 324 100 418 q 58 135 71 229 q 38 -54 44 40 q 69 -53 53 -54 q 101 -54 86 -53 q 115 -60 110 -54 q 119 -72 119 -65 q 115 -85 119 -79 q 101 -90 110 -90 l 18 -90 q 5 -85 11 -90 q 0 -72 -1 -79 q 20 126 7 28 q 49 324 33 225 q 81 521 65 422 q 110 718 97 619 q 111 724 110 722 q 128 736 114 736 q 165 735 147 738 q 203 731 183 733 z "},"]":{"ha":190,"x_min":-28,"x_max":192,"o":"m -12 -118 q -24 -111 -21 -117 q -26 -99 -28 -106 q -17 -87 -24 -92 q -3 -83 -11 -82 q 47 -87 22 -87 q 75 101 60 7 q 105 289 90 194 q 133 478 119 383 q 153 667 146 572 q 121 666 138 667 q 89 667 104 665 q 76 672 81 667 q 71 685 71 678 q 76 697 71 692 q 89 703 81 703 l 172 703 q 185 697 179 703 q 190 685 192 692 q 170 486 183 585 q 141 289 157 388 q 109 92 125 190 q 81 -106 93 -7 q 79 -111 81 -110 q 63 -124 76 -124 q 25 -123 43 -125 q -12 -118 7 -121 z "},"!":{"ha":201,"x_min":43,"x_max":185,"o":"m 149 753 q 156 765 150 761 q 169 766 163 768 q 180 758 175 764 q 183 743 185 751 q 142 472 161 607 q 107 199 124 336 q 106 190 107 193 q 105 185 106 188 q 104 181 104 183 q 97 169 103 172 q 83 167 90 167 q 72 173 76 168 q 68 185 67 178 q 106 469 86 328 q 149 753 125 610 m 54 103 q 60 115 54 111 q 72 119 65 119 q 85 115 79 119 q 92 103 92 111 q 90 65 92 83 q 81 26 88 46 q 71 15 78 18 q 58 15 64 13 q 47 22 51 17 q 46 36 43 28 q 54 103 56 69 z "},"?":{"ha":294,"x_min":0,"x_max":258,"o":"m 7 13 q 17 24 10 21 q 31 24 24 26 q 42 17 38 22 q 43 3 46 11 q 38 -53 33 -22 q 25 -75 40 -71 q 11 -73 18 -76 q 3 -62 4 -69 q 0 -25 0 -43 q 7 13 0 -7 m 185 672 q 242 619 225 658 q 251 540 258 579 q 233 486 247 511 q 201 438 219 461 q 165 392 183 414 q 132 346 146 369 q 75 224 94 285 q 53 157 64 196 q 53 89 42 118 q 52 75 56 81 q 42 67 49 69 q 28 68 35 65 q 18 79 21 71 q 10 122 10 99 q 17 168 11 144 q 31 214 22 192 q 47 256 40 236 q 138 418 79 342 q 166 455 150 436 q 194 494 182 474 q 214 536 207 514 q 215 583 221 558 q 195 623 210 607 q 157 642 181 639 q 102 632 129 644 q 64 593 75 619 q 53 582 61 585 q 40 581 46 579 q 29 588 33 583 q 28 601 25 593 q 53 640 36 624 q 92 667 71 657 q 138 678 114 676 q 185 672 163 681 z "},"|":{"ha":185,"x_min":25,"x_max":182,"o":"m 146 786 q 153 797 147 794 q 166 798 160 800 q 177 790 172 796 q 181 776 182 785 q 115 356 143 565 q 63 -65 88 147 q 55 -78 61 -74 q 42 -82 49 -82 q 31 -78 36 -82 q 26 -65 25 -74 q 80 362 51 150 q 146 786 108 574 z "},"+":{"ha":383,"x_min":0,"x_max":325,"o":"m 297 414 q 312 416 306 418 q 322 408 318 414 q 324 394 325 401 q 315 383 324 388 q 291 377 304 376 q 265 376 278 378 q 226 376 246 376 q 188 374 207 375 q 179 298 183 336 q 169 222 175 260 q 162 209 168 214 q 149 204 156 204 q 137 209 142 204 q 133 222 132 214 q 142 297 138 260 q 150 374 147 335 q 84 371 117 372 q 18 368 51 369 q 5 374 10 368 q 0 386 0 379 q 5 399 0 393 q 18 406 10 406 q 85 408 51 407 q 154 410 119 408 q 160 477 157 443 q 165 544 163 511 q 172 558 165 553 q 185 563 178 563 q 197 558 192 563 q 201 544 203 553 q 196 478 199 511 q 190 411 193 444 q 215 411 203 411 q 239 413 226 411 q 253 413 244 413 q 272 413 263 413 q 288 413 281 413 q 297 414 294 413 z "},"=":{"ha":372,"x_min":0,"x_max":331,"o":"m 304 339 q 318 341 311 343 q 328 333 325 339 q 330 319 331 326 q 322 307 329 311 q 297 301 311 300 q 272 301 283 303 q 232 301 253 301 q 192 299 211 300 q 108 297 150 297 q 24 293 65 296 q 10 299 15 293 q 6 311 6 304 q 10 324 6 318 q 24 331 15 331 q 98 333 61 332 q 171 335 135 333 q 208 336 190 336 q 246 338 226 336 q 259 338 250 338 q 278 338 268 338 q 294 338 288 338 q 304 339 301 338 m 185 421 q 101 417 143 418 q 18 415 60 417 q 5 420 10 415 q 0 432 0 425 q 5 445 0 439 q 18 451 10 451 q 91 453 54 453 q 165 456 128 454 q 202 458 185 457 q 239 458 219 458 q 253 458 244 458 q 272 458 263 458 q 288 458 281 458 q 297 460 294 458 q 312 462 306 464 q 322 454 318 460 q 324 441 325 449 q 315 429 324 433 q 291 423 304 422 q 265 422 278 424 q 226 422 246 422 q 185 421 206 421 z "},"~":{"ha":374,"x_min":-1,"x_max":347,"o":"m 310 343 q 319 354 313 351 q 333 355 326 357 q 343 347 339 353 q 344 333 347 342 q 300 287 333 297 q 233 288 267 276 q 189 309 210 296 q 144 331 168 322 q 111 333 128 335 q 79 322 94 331 q 53 301 64 314 q 36 271 42 288 q 26 260 33 263 q 13 259 19 257 q 3 267 7 261 q 1 281 -1 272 q 20 316 7 299 q 50 347 33 333 q 87 366 67 360 q 128 371 107 372 q 169 359 150 368 q 208 340 189 350 q 233 328 218 335 q 264 319 249 322 q 292 322 279 317 q 310 343 304 326 z "},",":{"ha":110,"x_min":-11,"x_max":79,"o":"m 28 86 q 24 101 22 94 q 33 112 26 108 q 46 115 39 115 q 58 107 53 114 q 76 66 72 88 q 73 24 79 44 q 52 -12 67 4 q 14 -35 38 -28 q -1 -33 6 -37 q -9 -23 -7 -29 q -9 -10 -11 -17 q 1 -1 -7 -4 q 39 35 32 8 q 28 86 46 63 z "},";":{"ha":160,"x_min":-11,"x_max":142,"o":"m 28 86 q 24 101 22 94 q 33 112 26 108 q 46 115 39 115 q 58 107 53 114 q 76 66 72 88 q 73 24 79 44 q 52 -12 67 4 q 14 -35 38 -28 q -1 -33 6 -37 q -9 -23 -7 -29 q -9 -10 -11 -17 q 1 -1 -7 -4 q 39 35 32 8 q 28 86 46 63 m 93 435 q 103 446 96 443 q 119 447 111 449 q 134 440 128 446 q 140 425 140 433 q 141 403 142 410 q 135 383 140 396 q 125 369 132 376 q 111 361 118 363 q 97 363 104 358 q 89 374 90 367 q 86 404 86 393 q 93 435 86 415 z "},".":{"ha":142,"x_min":32,"x_max":88,"o":"m 39 110 q 49 121 42 118 q 65 122 57 124 q 80 115 74 121 q 86 100 86 108 q 87 78 88 85 q 81 58 86 71 q 71 44 78 51 q 57 36 64 38 q 43 38 50 33 q 35 49 36 42 q 32 79 32 68 q 39 110 32 90 z "},":":{"ha":168,"x_min":32,"x_max":144,"o":"m 39 110 q 49 121 42 118 q 65 122 57 124 q 80 115 74 121 q 86 100 86 108 q 87 78 88 85 q 81 58 86 71 q 71 44 78 51 q 57 36 64 38 q 43 38 50 33 q 35 49 36 42 q 32 79 32 68 q 39 110 32 90 m 96 404 q 106 415 99 413 q 122 417 114 418 q 137 409 131 415 q 143 394 143 403 q 144 372 144 379 q 138 353 143 365 q 128 339 135 346 q 114 331 121 332 q 100 332 107 328 q 92 343 93 336 q 89 374 89 363 q 96 404 89 385 z "},"\\":{"ha":508,"x_min":0,"x_max":460,"o":"m 31 617 q 456 22 263 335 q 458 8 460 14 q 449 -2 456 1 q 435 -5 443 -6 q 424 3 428 -4 q 6 592 233 311 q 1 606 0 599 q 8 617 3 613 q 19 623 13 622 q 31 617 25 624 z "},"-":{"ha":360,"x_min":0,"x_max":325,"o":"m 315 383 q 291 377 304 376 q 265 376 278 378 q 226 376 246 376 q 185 374 206 375 q 101 372 143 372 q 18 368 60 371 q 5 374 10 368 q 0 386 0 379 q 5 399 0 393 q 18 406 10 406 q 91 408 54 407 q 165 410 128 408 q 202 411 185 411 q 239 413 219 411 q 253 413 244 413 q 272 413 263 413 q 288 413 281 413 q 297 414 294 413 q 312 416 306 418 q 322 408 318 414 q 324 394 325 401 q 315 383 324 388 z "},"*":{"ha":281,"x_min":0,"x_max":235,"o":"m 207 633 q 222 635 215 638 q 231 626 228 632 q 234 613 235 621 q 226 601 233 606 q 143 547 182 576 q 174 531 158 539 q 204 514 189 522 q 213 503 213 510 q 210 490 214 496 q 201 481 207 485 q 186 482 194 478 q 161 495 174 489 q 136 508 149 501 l 132 458 q 124 445 131 450 q 112 440 118 440 q 100 445 106 440 q 96 458 94 450 l 100 517 q 76 497 88 507 q 51 478 64 488 q 37 473 44 472 q 24 478 29 474 q 19 490 19 483 q 25 503 18 497 q 50 524 38 514 q 76 543 63 533 q 42 565 58 554 q 8 586 25 575 q 1 598 1 590 q 3 612 0 606 q 13 620 6 618 q 26 618 19 622 q 65 593 46 606 q 104 569 85 581 q 106 617 106 593 q 107 664 107 640 q 113 677 107 672 q 126 682 118 682 q 139 677 133 682 q 144 664 144 672 q 143 627 143 644 q 142 590 143 610 q 174 612 157 601 q 207 633 190 622 z "},"^":{"ha":269,"x_min":-1,"x_max":219,"o":"m 200 640 q 208 560 204 600 q 218 479 213 519 q 214 466 219 471 q 201 461 208 461 q 188 466 194 461 q 182 479 182 471 q 174 541 178 511 q 167 603 171 571 q 99 540 133 571 q 32 476 65 508 q 18 472 25 471 q 6 477 11 472 q 0 489 1 482 q 6 503 -1 496 l 168 653 q 188 656 178 661 q 200 640 197 651 z "},"`":{"ha":168,"x_min":-1,"x_max":138,"o":"m 35 678 q 83 619 58 647 q 132 563 107 590 q 137 549 138 556 q 131 537 136 542 q 119 531 126 532 q 107 536 113 529 q 53 596 79 565 q 4 658 28 626 q 1 672 -1 665 q 8 683 3 679 q 22 685 14 686 q 35 678 29 685 z "},"'":{"ha":85,"x_min":-1,"x_max":64,"o":"m 1 624 q 3 638 -1 632 q 13 645 7 643 q 26 644 19 647 q 36 633 33 642 q 43 471 64 553 q 33 460 40 463 q 20 459 26 457 q 9 467 14 461 q 7 481 4 472 q 1 624 25 550 z "},"\"":{"ha":150,"x_min":-1,"x_max":129,"o":"m 1 624 q 3 638 -1 632 q 13 645 7 643 q 26 644 19 647 q 36 633 33 642 q 53 563 50 593 q 44 493 56 533 q 35 482 42 485 q 22 481 28 479 q 10 489 15 483 q 8 503 6 494 q 15 535 13 521 q 15 564 17 550 q 10 592 14 578 q 1 624 7 606 m 67 624 q 68 638 64 632 q 78 645 72 643 q 92 644 85 647 q 101 633 99 642 q 108 471 129 553 q 99 460 106 463 q 85 459 92 457 q 74 467 79 461 q 72 481 69 472 q 67 624 90 550 z "},"a":{"ha":335,"x_min":-60,"x_max":368,"o":"m 331 253 q 340 264 333 261 q 354 265 347 267 q 365 257 361 263 q 365 243 368 251 q 344 196 358 225 q 311 141 331 167 q 268 100 292 115 q 218 96 244 85 q 183 135 190 107 q 175 190 175 163 q 176 252 175 222 q 176 314 176 282 q 126 186 157 247 q 38 78 96 125 q -13 47 7 51 q -44 52 -33 42 q -57 83 -54 63 q -57 128 -60 104 q -47 177 -54 153 q -28 218 -39 201 q -1 260 -14 240 q 26 296 11 281 q 61 322 42 311 q 108 338 81 332 q 123 335 117 339 q 131 324 129 331 q 130 310 133 317 q 118 303 126 304 q 78 289 94 299 q 49 266 61 279 q 26 236 36 253 q 4 200 15 219 q -12 163 -3 189 q -24 115 -21 136 q -17 88 -26 93 q 24 114 -8 82 q 52 143 42 132 q 70 165 63 154 q 85 190 78 176 q 104 225 92 203 q 124 265 115 244 q 140 306 132 286 q 158 346 149 326 q 183 382 168 365 q 203 386 192 392 q 214 369 215 381 q 210 271 214 321 q 213 172 207 221 q 219 142 213 154 q 267 147 250 125 q 281 164 275 154 q 294 182 288 174 q 331 253 315 214 z "},"b":{"ha":271,"x_min":-47,"x_max":219,"o":"m 176 306 q 210 271 200 294 q 219 219 219 247 q 211 164 219 192 q 193 119 203 136 q 115 51 165 71 q 11 39 64 31 q 6 -26 8 7 q 0 -92 3 -58 q -18 -109 -1 -110 q -36 -92 -35 -108 q -18 104 -47 11 q 1 270 -10 188 q 24 436 11 353 q 44 567 33 503 q 67 699 54 632 q 88 821 78 758 q 126 938 99 883 q 137 947 131 946 q 149 944 143 947 q 158 934 156 940 q 157 919 161 928 q 119 799 129 864 q 99 675 110 735 q 78 551 88 613 q 58 426 68 489 q 44 319 51 372 q 31 213 38 265 q 60 253 43 232 q 96 288 76 274 q 135 309 115 303 q 176 306 156 315 m 167 147 q 179 233 188 188 q 173 256 176 249 q 151 265 169 264 q 125 260 135 267 q 103 243 115 254 q 51 179 71 215 q 18 103 31 143 q 17 90 17 96 q 15 76 17 83 q 103 85 60 67 q 167 147 146 104 z "},"c":{"ha":260,"x_min":-44,"x_max":288,"o":"m 260 260 q 274 263 267 265 q 284 254 281 260 q 287 241 288 249 q 279 228 286 233 q 231 190 253 211 q 188 146 208 168 q 146 101 167 124 q 101 60 125 79 q 62 30 83 44 q 17 18 40 15 q -18 36 -4 21 q -37 71 -32 51 q -40 134 -44 97 q -24 208 -36 171 q 9 279 -11 246 q 56 334 29 313 q 115 360 83 356 q 182 346 146 365 q 191 335 190 342 q 188 322 192 328 q 178 313 185 315 q 164 314 172 310 q 120 324 140 326 q 83 308 100 321 q 51 275 65 294 q 29 238 38 256 q 1 149 10 194 q -3 127 0 140 q -6 100 -6 114 q -1 74 -6 86 q 14 56 3 61 q 36 56 24 51 q 60 71 49 61 q 83 91 72 81 q 100 107 93 101 q 151 163 126 133 q 203 215 176 190 q 260 260 229 239 z "},"M":{"ha":1051,"x_min":-4,"x_max":992,"o":"m 961 160 q 963 -27 954 65 q 988 -211 971 -119 q 984 -226 989 -219 q 973 -234 979 -232 q 960 -233 967 -236 q 953 -221 954 -229 q 926 -26 935 -124 q 926 172 918 72 q 946 363 935 268 q 947 554 957 458 q 941 595 946 571 q 926 638 936 619 q 899 665 915 657 q 857 657 882 672 q 799 603 824 638 q 753 539 775 569 q 568 203 642 382 q 558 192 565 194 q 545 192 551 190 q 535 199 539 193 q 533 213 531 204 q 571 403 553 308 q 597 593 589 497 q 601 686 601 639 q 603 714 601 697 q 601 740 606 731 q 584 754 593 760 q 564 740 575 749 q 508 682 533 715 q 461 617 483 649 q 383 480 417 551 q 323 334 349 408 q 276 183 297 260 q 235 32 254 107 q 215 19 231 17 q 199 36 200 21 q 180 238 189 138 q 161 439 171 338 q 159 463 160 447 q 154 492 158 479 q 142 513 150 506 q 117 511 133 519 q 88 485 101 503 q 64 451 74 467 q 38 374 43 415 q 43 293 32 333 q 42 278 46 285 q 31 270 38 272 q 18 272 25 268 q 8 283 11 275 q 2 381 -4 332 q 35 474 8 431 q 58 506 43 488 q 90 538 72 525 q 128 554 108 551 q 165 542 147 557 q 186 510 181 529 q 194 472 192 492 q 202 397 199 435 q 208 322 206 360 q 217 231 213 276 q 225 140 221 186 q 258 253 240 197 q 294 364 275 308 q 349 494 319 431 q 418 617 379 557 q 459 675 438 647 q 504 731 481 703 q 522 751 513 740 q 544 772 532 763 q 568 787 556 781 q 594 793 581 793 q 618 785 610 793 q 631 767 626 778 q 638 744 636 757 q 639 719 639 732 q 637 633 639 675 q 629 546 635 590 q 616 451 624 497 q 600 356 608 404 q 711 542 647 450 q 744 591 725 563 q 787 645 764 619 q 837 688 810 671 q 894 703 864 706 q 943 679 925 700 q 971 630 961 658 q 983 569 981 601 q 988 515 986 538 q 980 337 992 425 q 961 160 968 249 z "},"e":{"ha":286,"x_min":-28,"x_max":322,"o":"m 286 257 q 298 265 290 264 q 312 262 306 265 q 320 252 318 258 q 318 238 322 246 q 275 186 300 210 q 225 140 250 163 q 166 92 197 115 q 94 64 135 69 q 40 68 67 60 q -6 99 14 76 q -27 154 -28 124 q -18 215 -26 185 q 0 270 -11 242 q 28 325 11 299 q 66 372 44 351 q 115 404 88 393 q 154 404 136 413 q 176 372 172 396 q 172 318 182 347 q 150 268 163 289 q 92 213 128 231 q 21 215 56 194 q 13 187 17 201 q 10 158 10 172 q 15 132 10 144 q 35 111 21 119 q 93 101 63 93 q 147 124 124 108 q 192 159 171 139 q 235 199 214 179 q 262 226 249 213 q 286 257 275 240 m 140 353 q 126 367 138 369 q 102 353 115 364 q 78 330 89 343 q 63 311 67 317 q 32 253 46 286 q 67 242 50 238 q 101 264 85 246 q 115 282 107 271 q 128 306 122 293 q 138 331 135 318 q 140 353 142 343 z "},"f":{"ha":182,"x_min":-33,"x_max":219,"o":"m 192 275 q 206 277 199 279 q 216 269 213 275 q 219 255 219 263 q 210 243 218 247 q 133 203 174 219 q 51 194 92 188 q 71 83 74 142 q 61 -32 68 24 q 37 -208 51 -121 q 3 -383 22 -296 q -5 -394 1 -390 q -17 -396 -11 -397 q -28 -390 -24 -394 q -33 -378 -33 -386 q -19 -80 -26 -228 q -3 219 -11 68 q -5 222 -4 221 q -7 225 -6 224 q -11 239 -14 232 q -1 249 -8 246 l 19 586 q 27 599 21 594 q 40 604 33 604 q 52 599 47 604 q 57 586 57 594 q 45 412 50 499 q 35 238 40 325 q 75 227 54 226 q 116 235 96 228 q 156 253 136 243 q 192 275 175 264 m 24 -46 q 33 47 29 -1 q 29 140 38 96 q 23 19 26 79 q 17 -104 19 -42 q 20 -75 19 -89 q 24 -46 21 -61 z "}}}
